<?xml version="1.0" encoding="utf-8"?><!DOCTYPE svg PUBLIC "-//W3C//DTD SVG 1.1//EN" "http://www.w3.org/Graphics/SVG/1.1/DTD/svg11.dtd"><svg xmlns:xlink="http://www.w3.org/1999/xlink" xmlns="http://www.w3.org/2000/svg" id="map" viewBox="0 0 222 222" width="200" height="200" data-dot="6"><rect x="0" y="0" height="222" width="222" fill="#ffffff"/><defs/><g fill="#000000"><circle cx="33" cy="189" r="9" transform="rotate(-90,33,189)"/><path clip-rule="evenodd" class="svgeye" d="M 33 168a 21 21 0 1 0 0.1 0zm 0 6a 15 15 0 1 1 -0.1 0Z" transform="rotate(-90,33,189)"/><circle cx="189" cy="33" r="9" transform="rotate(90,189,33)"/><path clip-rule="evenodd" class="svgeye" d="M 189 12a 21 21 0 1 0 0.1 0zm 0 6a 15 15 0 1 1 -0.1 0Z" transform="rotate(90,189,33)"/><circle cx="33" cy="33" r="9" transform="rotate(0,33,33)"/><path clip-rule="evenodd" class="svgeye" d="M 33 12a 21 21 0 1 0 0.1 0zm 0 6a 15 15 0 1 1 -0.1 0Z" transform="rotate(0,33,33)"/><path d="M 66 12v 6h 3a 3 3, 0, 0, 0, 0 -6" transform="rotate(180,69,15)"/><rect x="72" y="12" width="6" height="6" transform="rotate(0,75,15)"/><path d="M 78 12v 6h 6a 6 6, 0, 0, 0, -6 -6" transform="rotate(0,81,15)"/><path d="M 90 12v 6h 3a 3 3, 0, 0, 0, 0 -6" transform="rotate(180,93,15)"/><rect x="96" y="12" width="6" height="6" transform="rotate(0,99,15)"/><path d="M 102 12v 6h 3a 3 3, 0, 0, 0, 0 -6" transform="rotate(0,105,15)"/><path d="M 120 12v 6h 3a 3 3, 0, 0, 0, 0 -6" transform="rotate(-90,123,15)"/><path d="M 138 12v 6h 6a 6 6, 0, 0, 0, -6 -6" transform="rotate(-90,141,15)"/><path d="M 144 12v 6h 3a 3 3, 0, 0, 0, 0 -6" transform="rotate(0,147,15)"/><circle cx="63" cy="21" r="3" transform="rotate(0,63,21)"/><path d="M 78 18v 6h 3a 3 3, 0, 0, 0, 0 -6" transform="rotate(90,81,21)"/><rect x="120" y="18" width="6" height="6" transform="rotate(0,123,21)"/><path d="M 126 18v 6h 6a 6 6, 0, 0, 0, -6 -6" transform="rotate(0,129,21)"/><rect x="138" y="18" width="6" height="6" transform="rotate(0,141,21)"/><path d="M 72 24v 6h 3a 3 3, 0, 0, 0, 0 -6" transform="rotate(-90,75,27)"/><path d="M 84 24v 6h 3a 3 3, 0, 0, 0, 0 -6" transform="rotate(180,87,27)"/><path d="M 90 24v 6h 6a 6 6, 0, 0, 0, -6 -6" transform="rotate(0,93,27)"/><rect x="120" y="24" width="6" height="6" transform="rotate(0,123,27)"/><rect x="126" y="24" width="6" height="6" transform="rotate(0,129,27)"/><rect x="132" y="24" width="6" height="6" transform="rotate(0,135,27)"/><rect x="138" y="24" width="6" height="6" transform="rotate(0,141,27)"/><path d="M 156 24v 6h 3a 3 3, 0, 0, 0, 0 -6" transform="rotate(-90,159,27)"/><path d="M 60 30v 6h 6a 6 6, 0, 0, 0, -6 -6" transform="rotate(-90,63,33)"/><rect x="66" y="30" width="6" height="6" transform="rotate(0,69,33)"/><path d="M 72 30v 6h 6a 6 6, 0, 0, 0, -6 -6" transform="rotate(90,75,33)"/><path d="M 90 30v 6h 3a 3 3, 0, 0, 0, 0 -6" transform="rotate(90,93,33)"/><path d="M 114 30v 6h 6a 6 6, 0, 0, 0, -6 -6" transform="rotate(-90,117,33)"/><path d="M 120 30v 6h 6a 6 6, 0, 0, 0, -6 -6" transform="rotate(90,123,33)"/><path d="M 138 30v 6h 6a 6 6, 0, 0, 0, -6 -6" transform="rotate(180,141,33)"/><path d="M 144 30v 6h 6a 6 6, 0, 0, 0, -6 -6" transform="rotate(0,147,33)"/><path d="M 156 30v 6h 3a 3 3, 0, 0, 0, 0 -6" transform="rotate(90,159,33)"/><path d="M 60 36v 6h 3a 3 3, 0, 0, 0, 0 -6" transform="rotate(90,63,39)"/><path d="M 96 36v 6h 3a 3 3, 0, 0, 0, 0 -6" transform="rotate(180,99,39)"/><rect x="102" y="36" width="6" height="6" transform="rotate(0,105,39)"/><rect x="108" y="36" width="6" height="6" transform="rotate(0,111,39)"/><rect x="114" y="36" width="6" height="6" transform="rotate(0,117,39)"/><path d="M 126 36v 6h 3a 3 3, 0, 0, 0, 0 -6" transform="rotate(180,129,39)"/><path d="M 132 36v 6h 3a 3 3, 0, 0, 0, 0 -6" transform="rotate(0,135,39)"/><path d="M 144 36v 6h 6a 6 6, 0, 0, 0, -6 -6" transform="rotate(180,147,39)"/><path d="M 150 36v 6h 6a 6 6, 0, 0, 0, -6 -6" transform="rotate(0,153,39)"/><path d="M 72 42v 6h 6a 6 6, 0, 0, 0, -6 -6" transform="rotate(-90,75,45)"/><path d="M 78 42v 6h 3a 3 3, 0, 0, 0, 0 -6" transform="rotate(0,81,45)"/><path d="M 114 42v 6h 6a 6 6, 0, 0, 0, -6 -6" transform="rotate(180,117,45)"/><path d="M 120 42v 6h 6a 6 6, 0, 0, 0, -6 -6" transform="rotate(0,123,45)"/><path d="M 150 42v 6h 3a 3 3, 0, 0, 0, 0 -6" transform="rotate(90,153,45)"/><path d="M 60 48v 6h 3a 3 3, 0, 0, 0, 0 -6" transform="rotate(-90,63,51)"/><rect x="72" y="48" width="6" height="6" transform="rotate(0,75,51)"/><circle cx="87" cy="51" r="3" transform="rotate(0,87,51)"/><circle cx="99" cy="51" r="3" transform="rotate(0,99,51)"/><path d="M 108 48v 6h 3a 3 3, 0, 0, 0, 0 -6" transform="rotate(-90,111,51)"/><path d="M 120 48v 6h 3a 3 3, 0, 0, 0, 0 -6" transform="rotate(90,123,51)"/><path d="M 132 48v 6h 3a 3 3, 0, 0, 0, 0 -6" transform="rotate(-90,135,51)"/><circle cx="147" cy="51" r="3" transform="rotate(0,147,51)"/><circle cx="159" cy="51" r="3" transform="rotate(0,159,51)"/><rect x="60" y="54" width="6" height="6" transform="rotate(0,63,57)"/><rect x="66" y="54" width="6" height="6" transform="rotate(0,69,57)"/><rect x="72" y="54" width="6" height="6" transform="rotate(0,75,57)"/><circle cx="93" cy="57" r="3" transform="rotate(0,93,57)"/><rect x="108" y="54" width="6" height="6" transform="rotate(0,111,57)"/><path d="M 126 54v 6h 6a 6 6, 0, 0, 0, -6 -6" transform="rotate(-90,129,57)"/><rect x="132" y="54" width="6" height="6" transform="rotate(0,135,57)"/><path d="M 150 54v 6h 3a 3 3, 0, 0, 0, 0 -6" transform="rotate(-90,153,57)"/><circle cx="21" cy="63" r="3" transform="rotate(0,21,63)"/><path d="M 30 60v 6h 6a 6 6, 0, 0, 0, -6 -6" transform="rotate(-90,33,63)"/><rect x="36" y="60" width="6" height="6" transform="rotate(0,39,63)"/><rect x="42" y="60" width="6" height="6" transform="rotate(0,45,63)"/><path d="M 48 60v 6h 3a 3 3, 0, 0, 0, 0 -6" transform="rotate(0,51,63)"/><path d="M 60 60v 6h 6a 6 6, 0, 0, 0, -6 -6" transform="rotate(180,63,63)"/><rect x="66" y="60" width="6" height="6" transform="rotate(0,69,63)"/><rect x="72" y="60" width="6" height="6" transform="rotate(0,75,63)"/><rect x="78" y="60" width="6" height="6" transform="rotate(0,81,63)"/><path d="M 84 60v 6h 6a 6 6, 0, 0, 0, -6 -6" transform="rotate(0,87,63)"/><circle cx="99" cy="63" r="3" transform="rotate(0,99,63)"/><path d="M 108 60v 6h 6a 6 6, 0, 0, 0, -6 -6" transform="rotate(180,111,63)"/><path d="M 114 60v 6h 3a 3 3, 0, 0, 0, 0 -6" transform="rotate(0,117,63)"/><rect x="126" y="60" width="6" height="6" transform="rotate(0,129,63)"/><path d="M 132 60v 6h 6a 6 6, 0, 0, 0, -6 -6" transform="rotate(90,135,63)"/><rect x="150" y="60" width="6" height="6" transform="rotate(0,153,63)"/><rect x="156" y="60" width="6" height="6" transform="rotate(0,159,63)"/><rect x="162" y="60" width="6" height="6" transform="rotate(0,165,63)"/><path d="M 168 60v 6h 3a 3 3, 0, 0, 0, 0 -6" transform="rotate(0,171,63)"/><path d="M 180 60v 6h 6a 6 6, 0, 0, 0, -6 -6" transform="rotate(-90,183,63)"/><path d="M 186 60v 6h 6a 6 6, 0, 0, 0, -6 -6" transform="rotate(0,189,63)"/><circle cx="201" cy="63" r="3" transform="rotate(0,201,63)"/><path d="M 12 66v 6h 3a 3 3, 0, 0, 0, 0 -6" transform="rotate(-90,15,69)"/><rect x="30" y="66" width="6" height="6" transform="rotate(0,33,69)"/><path d="M 54 66v 6h 3a 3 3, 0, 0, 0, 0 -6" transform="rotate(-90,57,69)"/><rect x="78" y="66" width="6" height="6" transform="rotate(0,81,69)"/><rect x="84" y="66" width="6" height="6" transform="rotate(0,87,69)"/><path d="M 90 66v 6h 6a 6 6, 0, 0, 0, -6 -6" transform="rotate(0,93,69)"/><circle cx="105" cy="69" r="3" transform="rotate(0,105,69)"/><path d="M 126 66v 6h 3a 3 3, 0, 0, 0, 0 -6" transform="rotate(90,129,69)"/><path d="M 144 66v 6h 3a 3 3, 0, 0, 0, 0 -6" transform="rotate(180,147,69)"/><rect x="150" y="66" width="6" height="6" transform="rotate(0,153,69)"/><rect x="180" y="66" width="6" height="6" transform="rotate(0,183,69)"/><rect x="186" y="66" width="6" height="6" transform="rotate(0,189,69)"/><path d="M 192 66v 6h 6a 6 6, 0, 0, 0, -6 -6" transform="rotate(0,195,69)"/><path d="M 12 72v 6h 3a 3 3, 0, 0, 0, 0 -6" transform="rotate(90,15,75)"/><path d="M 24 72v 6h 3a 3 3, 0, 0, 0, 0 -6" transform="rotate(180,27,75)"/><rect x="30" y="72" width="6" height="6" transform="rotate(0,33,75)"/><path d="M 48 72v 6h 3a 3 3, 0, 0, 0, 0 -6" transform="rotate(180,51,75)"/><rect x="54" y="72" width="6" height="6" transform="rotate(0,57,75)"/><rect x="60" y="72" width="6" height="6" transform="rotate(0,63,75)"/><path d="M 66 72v 6h 6a 6 6, 0, 0, 0, -6 -6" transform="rotate(0,69,75)"/><rect x="78" y="72" width="6" height="6" transform="rotate(0,81,75)"/><rect x="90" y="72" width="6" height="6" transform="rotate(0,93,75)"/><path d="M 114 72v 6h 6a 6 6, 0, 0, 0, -6 -6" transform="rotate(-90,117,75)"/><path d="M 120 72v 6h 3a 3 3, 0, 0, 0, 0 -6" transform="rotate(0,123,75)"/><path d="M 132 72v 6h 3a 3 3, 0, 0, 0, 0 -6" transform="rotate(180,135,75)"/><path d="M 138 72v 6h 3a 3 3, 0, 0, 0, 0 -6" transform="rotate(0,141,75)"/><path d="M 150 72v 6h 3a 3 3, 0, 0, 0, 0 -6" transform="rotate(90,153,75)"/><path d="M 168 72v 6h 3a 3 3, 0, 0, 0, 0 -6" transform="rotate(-90,171,75)"/><path d="M 180 72v 6h 6a 6 6, 0, 0, 0, -6 -6" transform="rotate(180,183,75)"/><rect x="186" y="72" width="6" height="6" transform="rotate(0,189,75)"/><rect x="192" y="72" width="6" height="6" transform="rotate(0,195,75)"/><circle cx="207" cy="75" r="3" transform="rotate(0,207,75)"/><path d="M 30 78v 6h 6a 6 6, 0, 0, 0, -6 -6" transform="rotate(180,33,81)"/><rect x="36" y="78" width="6" height="6" transform="rotate(0,39,81)"/><path d="M 42 78v 6h 3a 3 3, 0, 0, 0, 0 -6" transform="rotate(0,45,81)"/><rect x="66" y="78" width="6" height="6" transform="rotate(0,69,81)"/><rect x="78" y="78" width="6" height="6" transform="rotate(0,81,81)"/><rect x="90" y="78" width="6" height="6" transform="rotate(0,93,81)"/><path d="M 108 78v 6h 6a 6 6, 0, 0, 0, -6 -6" transform="rotate(-90,111,81)"/><rect x="114" y="78" width="6" height="6" transform="rotate(0,117,81)"/><path d="M 162 78v 6h 6a 6 6, 0, 0, 0, -6 -6" transform="rotate(-90,165,81)"/><rect x="168" y="78" width="6" height="6" transform="rotate(0,171,81)"/><path d="M 174 78v 6h 6a 6 6, 0, 0, 0, -6 -6" transform="rotate(0,177,81)"/><path d="M 192 78v 6h 6a 6 6, 0, 0, 0, -6 -6" transform="rotate(180,195,81)"/><path d="M 198 78v 6h 6a 6 6, 0, 0, 0, -6 -6" transform="rotate(0,201,81)"/><path d="M 12 84v 6h 6a 6 6, 0, 0, 0, -6 -6" transform="rotate(-90,15,87)"/><rect x="18" y="84" width="6" height="6" transform="rotate(0,21,87)"/><path d="M 24 84v 6h 3a 3 3, 0, 0, 0, 0 -6" transform="rotate(0,27,87)"/><path d="M 48 84v 6h 3a 3 3, 0, 0, 0, 0 -6" transform="rotate(180,51,87)"/><path d="M 54 84v 6h 3a 3 3, 0, 0, 0, 0 -6" transform="rotate(0,57,87)"/><rect x="66" y="84" width="6" height="6" transform="rotate(0,69,87)"/><rect x="72" y="84" width="6" height="6" transform="rotate(0,75,87)"/><rect x="78" y="84" width="6" height="6" transform="rotate(0,81,87)"/><rect x="84" y="84" width="6" height="6" transform="rotate(0,87,87)"/><rect x="90" y="84" width="6" height="6" transform="rotate(0,93,87)"/><path d="M 102 84v 6h 3a 3 3, 0, 0, 0, 0 -6" transform="rotate(180,105,87)"/><rect x="108" y="84" width="6" height="6" transform="rotate(0,111,87)"/><rect x="114" y="84" width="6" height="6" transform="rotate(0,117,87)"/><path d="M 120 84v 6h 6a 6 6, 0, 0, 0, -6 -6" transform="rotate(0,123,87)"/><path d="M 144 84v 6h 6a 6 6, 0, 0, 0, -6 -6" transform="rotate(-90,147,87)"/><rect x="150" y="84" width="6" height="6" transform="rotate(0,153,87)"/><rect x="156" y="84" width="6" height="6" transform="rotate(0,159,87)"/><rect x="162" y="84" width="6" height="6" transform="rotate(0,165,87)"/><rect x="168" y="84" width="6" height="6" transform="rotate(0,171,87)"/><path d="M 174 84v 6h 6a 6 6, 0, 0, 0, -6 -6" transform="rotate(90,177,87)"/><path d="M 198 84v 6h 3a 3 3, 0, 0, 0, 0 -6" transform="rotate(90,201,87)"/><path d="M 12 90v 6h 6a 6 6, 0, 0, 0, -6 -6" transform="rotate(180,15,93)"/><path d="M 18 90v 6h 6a 6 6, 0, 0, 0, -6 -6" transform="rotate(90,21,93)"/><circle cx="39" cy="93" r="3" transform="rotate(0,39,93)"/><path d="M 60 90v 6h 6a 6 6, 0, 0, 0, -6 -6" transform="rotate(-90,63,93)"/><rect x="66" y="90" width="6" height="6" transform="rotate(0,69,93)"/><path d="M 78 90v 6h 6a 6 6, 0, 0, 0, -6 -6" transform="rotate(180,81,93)"/><rect x="84" y="90" width="6" height="6" transform="rotate(0,87,93)"/><rect x="90" y="90" width="6" height="6" transform="rotate(0,93,93)"/><path d="M 96 90v 6h 6a 6 6, 0, 0, 0, -6 -6" transform="rotate(0,99,93)"/><path d="M 108 90v 6h 6a 6 6, 0, 0, 0, -6 -6" transform="rotate(180,111,93)"/><rect x="114" y="90" width="6" height="6" transform="rotate(0,117,93)"/><path d="M 120 90v 6h 6a 6 6, 0, 0, 0, -6 -6" transform="rotate(90,123,93)"/><path d="M 132 90v 6h 3a 3 3, 0, 0, 0, 0 -6" transform="rotate(180,135,93)"/><rect x="138" y="90" width="6" height="6" transform="rotate(0,141,93)"/><rect x="144" y="90" width="6" height="6" transform="rotate(0,147,93)"/><rect x="150" y="90" width="6" height="6" transform="rotate(0,153,93)"/><rect x="156" y="90" width="6" height="6" transform="rotate(0,159,93)"/><path d="M 162 90v 6h 6a 6 6, 0, 0, 0, -6 -6" transform="rotate(90,165,93)"/><circle cx="189" cy="93" r="3" transform="rotate(0,189,93)"/><path d="M 42 96v 6h 6a 6 6, 0, 0, 0, -6 -6" transform="rotate(-90,45,99)"/><path d="M 48 96v 6h 3a 3 3, 0, 0, 0, 0 -6" transform="rotate(0,51,99)"/><path d="M 60 96v 6h 6a 6 6, 0, 0, 0, -6 -6" transform="rotate(180,63,99)"/><rect x="66" y="96" width="6" height="6" transform="rotate(0,69,99)"/><path d="M 72 96v 6h 3a 3 3, 0, 0, 0, 0 -6" transform="rotate(0,75,99)"/><rect x="96" y="96" width="6" height="6" transform="rotate(0,99,99)"/><path d="M 102 96v 6h 6a 6 6, 0, 0, 0, -6 -6" transform="rotate(0,105,99)"/><path d="M 114 96v 6h 3a 3 3, 0, 0, 0, 0 -6" transform="rotate(90,117,99)"/><circle cx="129" cy="99" r="3" transform="rotate(0,129,99)"/><path d="M 138 96v 6h 3a 3 3, 0, 0, 0, 0 -6" transform="rotate(90,141,99)"/><rect x="156" y="96" width="6" height="6" transform="rotate(0,159,99)"/><circle cx="171" cy="99" r="3" transform="rotate(0,171,99)"/><path d="M 18 102v 6h 6a 6 6, 0, 0, 0, -6 -6" transform="rotate(-90,21,105)"/><rect x="24" y="102" width="6" height="6" transform="rotate(0,27,105)"/><path d="M 30 102v 6h 3a 3 3, 0, 0, 0, 0 -6" transform="rotate(0,33,105)"/><path d="M 42 102v 6h 3a 3 3, 0, 0, 0, 0 -6" transform="rotate(90,45,105)"/><path d="M 54 102v 6h 3a 3 3, 0, 0, 0, 0 -6" transform="rotate(-90,57,105)"/><rect x="66" y="102" width="6" height="6" transform="rotate(0,69,105)"/><circle cx="81" cy="105" r="3" transform="rotate(0,81,105)"/><path d="M 90 102v 6h 3a 3 3, 0, 0, 0, 0 -6" transform="rotate(180,93,105)"/><rect x="96" y="102" width="6" height="6" transform="rotate(0,99,105)"/><rect x="102" y="102" width="6" height="6" transform="rotate(0,105,105)"/><path d="M 120 102v 6h 3a 3 3, 0, 0, 0, 0 -6" transform="rotate(-90,123,105)"/><path d="M 132 102v 6h 3a 3 3, 0, 0, 0, 0 -6" transform="rotate(-90,135,105)"/><path d="M 144 102v 6h 3a 3 3, 0, 0, 0, 0 -6" transform="rotate(-90,147,105)"/><rect x="156" y="102" width="6" height="6" transform="rotate(0,159,105)"/><path d="M 162 102v 6h 6a 6 6, 0, 0, 0, -6 -6" transform="rotate(0,165,105)"/><path d="M 174 102v 6h 3a 3 3, 0, 0, 0, 0 -6" transform="rotate(-90,177,105)"/><path d="M 186 102v 6h 6a 6 6, 0, 0, 0, -6 -6" transform="rotate(-90,189,105)"/><path d="M 192 102v 6h 3a 3 3, 0, 0, 0, 0 -6" transform="rotate(0,195,105)"/><circle cx="207" cy="105" r="3" transform="rotate(0,207,105)"/><path d="M 12 108v 6h 3a 3 3, 0, 0, 0, 0 -6" transform="rotate(180,15,111)"/><path d="M 18 108v 6h 6a 6 6, 0, 0, 0, -6 -6" transform="rotate(90,21,111)"/><circle cx="39" cy="111" r="3" transform="rotate(0,39,111)"/><path d="M 48 108v 6h 3a 3 3, 0, 0, 0, 0 -6" transform="rotate(180,51,111)"/><path d="M 54 108v 6h 6a 6 6, 0, 0, 0, -6 -6" transform="rotate(90,57,111)"/><rect x="66" y="108" width="6" height="6" transform="rotate(0,69,111)"/><circle cx="87" cy="111" r="3" transform="rotate(0,87,111)"/><path d="M 96 108v 6h 6a 6 6, 0, 0, 0, -6 -6" transform="rotate(180,99,111)"/><rect x="102" y="108" width="6" height="6" transform="rotate(0,105,111)"/><path d="M 120 108v 6h 3a 3 3, 0, 0, 0, 0 -6" transform="rotate(90,123,111)"/><rect x="132" y="108" width="6" height="6" transform="rotate(0,135,111)"/><rect x="144" y="108" width="6" height="6" transform="rotate(0,147,111)"/><rect x="150" y="108" width="6" height="6" transform="rotate(0,153,111)"/><rect x="156" y="108" width="6" height="6" transform="rotate(0,159,111)"/><rect x="162" y="108" width="6" height="6" transform="rotate(0,165,111)"/><rect x="168" y="108" width="6" height="6" transform="rotate(0,171,111)"/><rect x="174" y="108" width="6" height="6" transform="rotate(0,177,111)"/><rect x="180" y="108" width="6" height="6" transform="rotate(0,183,111)"/><path d="M 186 108v 6h 6a 6 6, 0, 0, 0, -6 -6" transform="rotate(90,189,111)"/><path d="M 30 114v 6h 3a 3 3, 0, 0, 0, 0 -6" transform="rotate(-90,33,117)"/><path d="M 60 114v 6h 6a 6 6, 0, 0, 0, -6 -6" transform="rotate(-90,63,117)"/><path d="M 66 114v 6h 6a 6 6, 0, 0, 0, -6 -6" transform="rotate(90,69,117)"/><path d="M 102 114v 6h 3a 3 3, 0, 0, 0, 0 -6" transform="rotate(90,105,117)"/><path d="M 114 114v 6h 3a 3 3, 0, 0, 0, 0 -6" transform="rotate(-90,117,117)"/><path d="M 126 114v 6h 6a 6 6, 0, 0, 0, -6 -6" transform="rotate(-90,129,117)"/><rect x="132" y="114" width="6" height="6" transform="rotate(0,135,117)"/><rect x="144" y="114" width="6" height="6" transform="rotate(0,147,117)"/><path d="M 168 114v 6h 3a 3 3, 0, 0, 0, 0 -6" transform="rotate(90,171,117)"/><path d="M 180 114v 6h 3a 3 3, 0, 0, 0, 0 -6" transform="rotate(90,183,117)"/><path d="M 192 114v 6h 3a 3 3, 0, 0, 0, 0 -6" transform="rotate(-90,195,117)"/><path d="M 204 114v 6h 3a 3 3, 0, 0, 0, 0 -6" transform="rotate(-90,207,117)"/><path d="M 30 120v 6h 3a 3 3, 0, 0, 0, 0 -6" transform="rotate(90,33,123)"/><path d="M 42 120v 6h 6a 6 6, 0, 0, 0, -6 -6" transform="rotate(-90,45,123)"/><path d="M 48 120v 6h 3a 3 3, 0, 0, 0, 0 -6" transform="rotate(0,51,123)"/><rect x="60" y="120" width="6" height="6" transform="rotate(0,63,123)"/><path d="M 72 120v 6h 6a 6 6, 0, 0, 0, -6 -6" transform="rotate(-90,75,123)"/><rect x="78" y="120" width="6" height="6" transform="rotate(0,81,123)"/><path d="M 84 120v 6h 3a 3 3, 0, 0, 0, 0 -6" transform="rotate(0,87,123)"/><path d="M 96 120v 6h 3a 3 3, 0, 0, 0, 0 -6" transform="rotate(-90,99,123)"/><rect x="114" y="120" width="6" height="6" transform="rotate(0,117,123)"/><rect x="120" y="120" width="6" height="6" transform="rotate(0,123,123)"/><rect x="126" y="120" width="6" height="6" transform="rotate(0,129,123)"/><rect x="132" y="120" width="6" height="6" transform="rotate(0,135,123)"/><rect x="138" y="120" width="6" height="6" transform="rotate(0,141,123)"/><rect x="144" y="120" width="6" height="6" transform="rotate(0,147,123)"/><rect x="150" y="120" width="6" height="6" transform="rotate(0,153,123)"/><path d="M 156 120v 6h 6a 6 6, 0, 0, 0, -6 -6" transform="rotate(0,159,123)"/><circle cx="177" cy="123" r="3" transform="rotate(0,177,123)"/><path d="M 186 120v 6h 6a 6 6, 0, 0, 0, -6 -6" transform="rotate(-90,189,123)"/><rect x="192" y="120" width="6" height="6" transform="rotate(0,195,123)"/><rect x="204" y="120" width="6" height="6" transform="rotate(0,207,123)"/><path d="M 18 126v 6h 3a 3 3, 0, 0, 0, 0 -6" transform="rotate(180,21,129)"/><path d="M 24 126v 6h 3a 3 3, 0, 0, 0, 0 -6" transform="rotate(0,27,129)"/><path d="M 36 126v 6h 6a 6 6, 0, 0, 0, -6 -6" transform="rotate(-90,39,129)"/><rect x="42" y="126" width="6" height="6" transform="rotate(0,45,129)"/><path d="M 60 126v 6h 3a 3 3, 0, 0, 0, 0 -6" transform="rotate(90,63,129)"/><rect x="72" y="126" width="6" height="6" transform="rotate(0,75,129)"/><path d="M 78 126v 6h 6a 6 6, 0, 0, 0, -6 -6" transform="rotate(90,81,129)"/><path d="M 96 126v 6h 3a 3 3, 0, 0, 0, 0 -6" transform="rotate(90,99,129)"/><path d="M 108 126v 6h 6a 6 6, 0, 0, 0, -6 -6" transform="rotate(-90,111,129)"/><rect x="114" y="126" width="6" height="6" transform="rotate(0,117,129)"/><rect x="144" y="126" width="6" height="6" transform="rotate(0,147,129)"/><path d="M 156 126v 6h 3a 3 3, 0, 0, 0, 0 -6" transform="rotate(90,159,129)"/><path d="M 180 126v 6h 3a 3 3, 0, 0, 0, 0 -6" transform="rotate(180,183,129)"/><rect x="186" y="126" width="6" height="6" transform="rotate(0,189,129)"/><path d="M 192 126v 6h 6a 6 6, 0, 0, 0, -6 -6" transform="rotate(90,195,129)"/><path d="M 204 126v 6h 3a 3 3, 0, 0, 0, 0 -6" transform="rotate(90,207,129)"/><path d="M 12 132v 6h 3a 3 3, 0, 0, 0, 0 -6" transform="rotate(-90,15,135)"/><path d="M 30 132v 6h 3a 3 3, 0, 0, 0, 0 -6" transform="rotate(180,33,135)"/><rect x="36" y="132" width="6" height="6" transform="rotate(0,39,135)"/><rect x="42" y="132" width="6" height="6" transform="rotate(0,45,135)"/><path d="M 48 132v 6h 3a 3 3, 0, 0, 0, 0 -6" transform="rotate(0,51,135)"/><rect x="72" y="132" width="6" height="6" transform="rotate(0,75,135)"/><path d="M 84 132v 6h 3a 3 3, 0, 0, 0, 0 -6" transform="rotate(-90,87,135)"/><path d="M 102 132v 6h 3a 3 3, 0, 0, 0, 0 -6" transform="rotate(180,105,135)"/><rect x="108" y="132" width="6" height="6" transform="rotate(0,111,135)"/><rect x="114" y="132" width="6" height="6" transform="rotate(0,117,135)"/><path d="M 120 132v 6h 6a 6 6, 0, 0, 0, -6 -6" transform="rotate(0,123,135)"/><path d="M 132 132v 6h 3a 3 3, 0, 0, 0, 0 -6" transform="rotate(-90,135,135)"/><path d="M 144 132v 6h 3a 3 3, 0, 0, 0, 0 -6" transform="rotate(90,147,135)"/><circle cx="177" cy="135" r="3" transform="rotate(0,177,135)"/><path d="M 186 132v 6h 3a 3 3, 0, 0, 0, 0 -6" transform="rotate(90,189,135)"/><rect x="12" y="138" width="6" height="6" transform="rotate(0,15,141)"/><path d="M 18 138v 6h 3a 3 3, 0, 0, 0, 0 -6" transform="rotate(0,21,141)"/><path d="M 66 138v 6h 3a 3 3, 0, 0, 0, 0 -6" transform="rotate(180,69,141)"/><rect x="72" y="138" width="6" height="6" transform="rotate(0,75,141)"/><rect x="78" y="138" width="6" height="6" transform="rotate(0,81,141)"/><rect x="84" y="138" width="6" height="6" transform="rotate(0,87,141)"/><path d="M 90 138v 6h 3a 3 3, 0, 0, 0, 0 -6" transform="rotate(0,93,141)"/><rect x="120" y="138" width="6" height="6" transform="rotate(0,123,141)"/><rect x="126" y="138" width="6" height="6" transform="rotate(0,129,141)"/><rect x="132" y="138" width="6" height="6" transform="rotate(0,135,141)"/><path d="M 150 138v 6h 3a 3 3, 0, 0, 0, 0 -6" transform="rotate(-90,153,141)"/><circle cx="183" cy="141" r="3" transform="rotate(0,183,141)"/><circle cx="195" cy="141" r="3" transform="rotate(0,195,141)"/><rect x="12" y="144" width="6" height="6" transform="rotate(0,15,147)"/><path d="M 24 144v 6h 6a 6 6, 0, 0, 0, -6 -6" transform="rotate(-90,27,147)"/><path d="M 30 144v 6h 3a 3 3, 0, 0, 0, 0 -6" transform="rotate(0,33,147)"/><path d="M 48 144v 6h 3a 3 3, 0, 0, 0, 0 -6" transform="rotate(180,51,147)"/><rect x="54" y="144" width="6" height="6" transform="rotate(0,57,147)"/><path d="M 60 144v 6h 3a 3 3, 0, 0, 0, 0 -6" transform="rotate(0,63,147)"/><path d="M 78 144v 6h 3a 3 3, 0, 0, 0, 0 -6" transform="rotate(90,81,147)"/><path d="M 96 144v 6h 3a 3 3, 0, 0, 0, 0 -6" transform="rotate(180,99,147)"/><path d="M 102 144v 6h 3a 3 3, 0, 0, 0, 0 -6" transform="rotate(0,105,147)"/><path d="M 114 144v 6h 6a 6 6, 0, 0, 0, -6 -6" transform="rotate(-90,117,147)"/><rect x="120" y="144" width="6" height="6" transform="rotate(0,123,147)"/><rect x="132" y="144" width="6" height="6" transform="rotate(0,135,147)"/><rect x="138" y="144" width="6" height="6" transform="rotate(0,141,147)"/><rect x="144" y="144" width="6" height="6" transform="rotate(0,147,147)"/><rect x="150" y="144" width="6" height="6" transform="rotate(0,153,147)"/><path d="M 156 144v 6h 6a 6 6, 0, 0, 0, -6 -6" transform="rotate(0,159,147)"/><circle cx="171" cy="147" r="3" transform="rotate(0,171,147)"/><path d="M 198 144v 6h 3a 3 3, 0, 0, 0, 0 -6" transform="rotate(180,201,147)"/><path d="M 204 144v 6h 6a 6 6, 0, 0, 0, -6 -6" transform="rotate(0,207,147)"/><rect x="12" y="150" width="6" height="6" transform="rotate(0,15,153)"/><rect x="24" y="150" width="6" height="6" transform="rotate(0,27,153)"/><path d="M 42 150v 6h 3a 3 3, 0, 0, 0, 0 -6" transform="rotate(-90,45,153)"/><path d="M 54 150v 6h 3a 3 3, 0, 0, 0, 0 -6" transform="rotate(90,57,153)"/><path d="M 84 150v 6h 6a 6 6, 0, 0, 0, -6 -6" transform="rotate(-90,87,153)"/><path d="M 90 150v 6h 6a 6 6, 0, 0, 0, -6 -6" transform="rotate(0,93,153)"/><rect x="114" y="150" width="6" height="6" transform="rotate(0,117,153)"/><path d="M 120 150v 6h 6a 6 6, 0, 0, 0, -6 -6" transform="rotate(90,123,153)"/><rect x="132" y="150" width="6" height="6" transform="rotate(0,135,153)"/><rect x="150" y="150" width="6" height="6" transform="rotate(0,153,153)"/><rect x="156" y="150" width="6" height="6" transform="rotate(0,159,153)"/><path d="M 162 150v 6h 6a 6 6, 0, 0, 0, -6 -6" transform="rotate(0,165,153)"/><path d="M 174 150v 6h 3a 3 3, 0, 0, 0, 0 -6" transform="rotate(-90,177,153)"/><circle cx="195" cy="153" r="3" transform="rotate(0,195,153)"/><path d="M 204 150v 6h 3a 3 3, 0, 0, 0, 0 -6" transform="rotate(90,207,153)"/><path d="M 12 156v 6h 6a 6 6, 0, 0, 0, -6 -6" transform="rotate(180,15,159)"/><rect x="18" y="156" width="6" height="6" transform="rotate(0,21,159)"/><rect x="24" y="156" width="6" height="6" transform="rotate(0,27,159)"/><rect x="30" y="156" width="6" height="6" transform="rotate(0,33,159)"/><rect x="36" y="156" width="6" height="6" transform="rotate(0,39,159)"/><rect x="42" y="156" width="6" height="6" transform="rotate(0,45,159)"/><path d="M 48 156v 6h 3a 3 3, 0, 0, 0, 0 -6" transform="rotate(0,51,159)"/><path d="M 60 156v 6h 3a 3 3, 0, 0, 0, 0 -6" transform="rotate(-90,63,159)"/><path d="M 78 156v 6h 6a 6 6, 0, 0, 0, -6 -6" transform="rotate(-90,81,159)"/><rect x="84" y="156" width="6" height="6" transform="rotate(0,87,159)"/><path d="M 90 156v 6h 6a 6 6, 0, 0, 0, -6 -6" transform="rotate(90,93,159)"/><path d="M 108 156v 6h 6a 6 6, 0, 0, 0, -6 -6" transform="rotate(-90,111,159)"/><rect x="114" y="156" width="6" height="6" transform="rotate(0,117,159)"/><path d="M 126 156v 6h 3a 3 3, 0, 0, 0, 0 -6" transform="rotate(180,129,159)"/><rect x="132" y="156" width="6" height="6" transform="rotate(0,135,159)"/><rect x="150" y="156" width="6" height="6" transform="rotate(0,153,159)"/><rect x="156" y="156" width="6" height="6" transform="rotate(0,159,159)"/><rect x="162" y="156" width="6" height="6" transform="rotate(0,165,159)"/><rect x="168" y="156" width="6" height="6" transform="rotate(0,171,159)"/><rect x="174" y="156" width="6" height="6" transform="rotate(0,177,159)"/><rect x="180" y="156" width="6" height="6" transform="rotate(0,183,159)"/><path d="M 186 156v 6h 3a 3 3, 0, 0, 0, 0 -6" transform="rotate(0,189,159)"/><path d="M 60 162v 6h 3a 3 3, 0, 0, 0, 0 -6" transform="rotate(90,63,165)"/><path d="M 72 162v 6h 6a 6 6, 0, 0, 0, -6 -6" transform="rotate(-90,75,165)"/><rect x="78" y="162" width="6" height="6" transform="rotate(0,81,165)"/><path d="M 108 162v 6h 6a 6 6, 0, 0, 0, -6 -6" transform="rotate(180,111,165)"/><rect x="114" y="162" width="6" height="6" transform="rotate(0,117,165)"/><rect x="132" y="162" width="6" height="6" transform="rotate(0,135,165)"/><path d="M 144 162v 6h 6a 6 6, 0, 0, 0, -6 -6" transform="rotate(-90,147,165)"/><rect x="150" y="162" width="6" height="6" transform="rotate(0,153,165)"/><rect x="156" y="162" width="6" height="6" transform="rotate(0,159,165)"/><rect x="180" y="162" width="6" height="6" transform="rotate(0,183,165)"/><path d="M 192 162v 6h 6a 6 6, 0, 0, 0, -6 -6" transform="rotate(-90,195,165)"/><path d="M 198 162v 6h 3a 3 3, 0, 0, 0, 0 -6" transform="rotate(0,201,165)"/><path d="M 66 168v 6h 6a 6 6, 0, 0, 0, -6 -6" transform="rotate(-90,69,171)"/><rect x="72" y="168" width="6" height="6" transform="rotate(0,75,171)"/><rect x="78" y="168" width="6" height="6" transform="rotate(0,81,171)"/><path d="M 84 168v 6h 6a 6 6, 0, 0, 0, -6 -6" transform="rotate(0,87,171)"/><circle cx="99" cy="171" r="3" transform="rotate(0,99,171)"/><rect x="114" y="168" width="6" height="6" transform="rotate(0,117,171)"/><rect x="120" y="168" width="6" height="6" transform="rotate(0,123,171)"/><rect x="126" y="168" width="6" height="6" transform="rotate(0,129,171)"/><rect x="132" y="168" width="6" height="6" transform="rotate(0,135,171)"/><rect x="138" y="168" width="6" height="6" transform="rotate(0,141,171)"/><rect x="144" y="168" width="6" height="6" transform="rotate(0,147,171)"/><rect x="150" y="168" width="6" height="6" transform="rotate(0,153,171)"/><rect x="156" y="168" width="6" height="6" transform="rotate(0,159,171)"/><circle cx="171" cy="171" r="3" transform="rotate(0,171,171)"/><rect x="180" y="168" width="6" height="6" transform="rotate(0,183,171)"/><rect x="192" y="168" width="6" height="6" transform="rotate(0,195,171)"/><path d="M 60 174v 6h 6a 6 6, 0, 0, 0, -6 -6" transform="rotate(-90,63,177)"/><rect x="66" y="174" width="6" height="6" transform="rotate(0,69,177)"/><path d="M 72 174v 6h 6a 6 6, 0, 0, 0, -6 -6" transform="rotate(90,75,177)"/><rect x="84" y="174" width="6" height="6" transform="rotate(0,87,177)"/><path d="M 90 174v 6h 3a 3 3, 0, 0, 0, 0 -6" transform="rotate(0,93,177)"/><path d="M 108 174v 6h 6a 6 6, 0, 0, 0, -6 -6" transform="rotate(-90,111,177)"/><rect x="114" y="174" width="6" height="6" transform="rotate(0,117,177)"/><path d="M 132 174v 6h 3a 3 3, 0, 0, 0, 0 -6" transform="rotate(90,135,177)"/><path d="M 144 174v 6h 6a 6 6, 0, 0, 0, -6 -6" transform="rotate(180,147,177)"/><rect x="150" y="174" width="6" height="6" transform="rotate(0,153,177)"/><rect x="156" y="174" width="6" height="6" transform="rotate(0,159,177)"/><rect x="180" y="174" width="6" height="6" transform="rotate(0,183,177)"/><rect x="186" y="174" width="6" height="6" transform="rotate(0,189,177)"/><rect x="192" y="174" width="6" height="6" transform="rotate(0,195,177)"/><path d="M 198 174v 6h 6a 6 6, 0, 0, 0, -6 -6" transform="rotate(0,201,177)"/><rect x="60" y="180" width="6" height="6" transform="rotate(0,63,183)"/><rect x="66" y="180" width="6" height="6" transform="rotate(0,69,183)"/><path d="M 84 180v 6h 3a 3 3, 0, 0, 0, 0 -6" transform="rotate(90,87,183)"/><path d="M 108 180v 6h 6a 6 6, 0, 0, 0, -6 -6" transform="rotate(180,111,183)"/><rect x="114" y="180" width="6" height="6" transform="rotate(0,117,183)"/><rect x="120" y="180" width="6" height="6" transform="rotate(0,123,183)"/><path d="M 126 180v 6h 6a 6 6, 0, 0, 0, -6 -6" transform="rotate(0,129,183)"/><rect x="150" y="180" width="6" height="6" transform="rotate(0,153,183)"/><rect x="156" y="180" width="6" height="6" transform="rotate(0,159,183)"/><rect x="162" y="180" width="6" height="6" transform="rotate(0,165,183)"/><rect x="168" y="180" width="6" height="6" transform="rotate(0,171,183)"/><rect x="174" y="180" width="6" height="6" transform="rotate(0,177,183)"/><path d="M 180 180v 6h 6a 6 6, 0, 0, 0, -6 -6" transform="rotate(90,183,183)"/><path d="M 198 180v 6h 6a 6 6, 0, 0, 0, -6 -6" transform="rotate(180,201,183)"/><path d="M 204 180v 6h 6a 6 6, 0, 0, 0, -6 -6" transform="rotate(0,207,183)"/><path d="M 60 186v 6h 6a 6 6, 0, 0, 0, -6 -6" transform="rotate(180,63,189)"/><rect x="66" y="186" width="6" height="6" transform="rotate(0,69,189)"/><circle cx="105" cy="189" r="3" transform="rotate(0,105,189)"/><rect x="126" y="186" width="6" height="6" transform="rotate(0,129,189)"/><rect x="150" y="186" width="6" height="6" transform="rotate(0,153,189)"/><rect x="156" y="186" width="6" height="6" transform="rotate(0,159,189)"/><path d="M 162 186v 6h 6a 6 6, 0, 0, 0, -6 -6" transform="rotate(90,165,189)"/><rect x="174" y="186" width="6" height="6" transform="rotate(0,177,189)"/><rect x="204" y="186" width="6" height="6" transform="rotate(0,207,189)"/><path d="M 66 192v 6h 6a 6 6, 0, 0, 0, -6 -6" transform="rotate(180,69,195)"/><rect x="72" y="192" width="6" height="6" transform="rotate(0,75,195)"/><rect x="78" y="192" width="6" height="6" transform="rotate(0,81,195)"/><rect x="84" y="192" width="6" height="6" transform="rotate(0,87,195)"/><rect x="90" y="192" width="6" height="6" transform="rotate(0,93,195)"/><path d="M 96 192v 6h 3a 3 3, 0, 0, 0, 0 -6" transform="rotate(0,99,195)"/><path d="M 108 192v 6h 6a 6 6, 0, 0, 0, -6 -6" transform="rotate(-90,111,195)"/><rect x="114" y="192" width="6" height="6" transform="rotate(0,117,195)"/><rect x="120" y="192" width="6" height="6" transform="rotate(0,123,195)"/><rect x="126" y="192" width="6" height="6" transform="rotate(0,129,195)"/><path d="M 132 192v 6h 6a 6 6, 0, 0, 0, -6 -6" transform="rotate(0,135,195)"/><path d="M 144 192v 6h 3a 3 3, 0, 0, 0, 0 -6" transform="rotate(180,147,195)"/><rect x="150" y="192" width="6" height="6" transform="rotate(0,153,195)"/><path d="M 156 192v 6h 6a 6 6, 0, 0, 0, -6 -6" transform="rotate(90,159,195)"/><rect x="174" y="192" width="6" height="6" transform="rotate(0,177,195)"/><path d="M 180 192v 6h 6a 6 6, 0, 0, 0, -6 -6" transform="rotate(0,183,195)"/><path d="M 198 192v 6h 6a 6 6, 0, 0, 0, -6 -6" transform="rotate(-90,201,195)"/><rect x="204" y="192" width="6" height="6" transform="rotate(0,207,195)"/><circle cx="63" cy="201" r="3" transform="rotate(0,63,201)"/><rect x="78" y="198" width="6" height="6" transform="rotate(0,81,201)"/><rect x="84" y="198" width="6" height="6" transform="rotate(0,87,201)"/><rect x="90" y="198" width="6" height="6" transform="rotate(0,93,201)"/><path d="M 102 198v 6h 3a 3 3, 0, 0, 0, 0 -6" transform="rotate(180,105,201)"/><rect x="108" y="198" width="6" height="6" transform="rotate(0,111,201)"/><path d="M 114 198v 6h 6a 6 6, 0, 0, 0, -6 -6" transform="rotate(90,117,201)"/><rect x="132" y="198" width="6" height="6" transform="rotate(0,135,201)"/><rect x="150" y="198" width="6" height="6" transform="rotate(0,153,201)"/><path d="M 162 198v 6h 3a 3 3, 0, 0, 0, 0 -6" transform="rotate(180,165,201)"/><rect x="168" y="198" width="6" height="6" transform="rotate(0,171,201)"/><rect x="174" y="198" width="6" height="6" transform="rotate(0,177,201)"/><rect x="180" y="198" width="6" height="6" transform="rotate(0,183,201)"/><rect x="186" y="198" width="6" height="6" transform="rotate(0,189,201)"/><rect x="192" y="198" width="6" height="6" transform="rotate(0,195,201)"/><rect x="198" y="198" width="6" height="6" transform="rotate(0,201,201)"/><path d="M 204 198v 6h 6a 6 6, 0, 0, 0, -6 -6" transform="rotate(90,207,201)"/><path d="M 78 204v 6h 3a 3 3, 0, 0, 0, 0 -6" transform="rotate(90,81,207)"/><path d="M 90 204v 6h 6a 6 6, 0, 0, 0, -6 -6" transform="rotate(180,93,207)"/><path d="M 96 204v 6h 3a 3 3, 0, 0, 0, 0 -6" transform="rotate(0,99,207)"/><path d="M 108 204v 6h 3a 3 3, 0, 0, 0, 0 -6" transform="rotate(90,111,207)"/><path d="M 120 204v 6h 3a 3 3, 0, 0, 0, 0 -6" transform="rotate(180,123,207)"/><rect x="126" y="204" width="6" height="6" transform="rotate(0,129,207)"/><path d="M 132 204v 6h 6a 6 6, 0, 0, 0, -6 -6" transform="rotate(90,135,207)"/><path d="M 150 204v 6h 6a 6 6, 0, 0, 0, -6 -6" transform="rotate(180,153,207)"/><path d="M 156 204v 6h 3a 3 3, 0, 0, 0, 0 -6" transform="rotate(0,159,207)"/><path d="M 174 204v 6h 6a 6 6, 0, 0, 0, -6 -6" transform="rotate(180,177,207)"/><path d="M 180 204v 6h 6a 6 6, 0, 0, 0, -6 -6" transform="rotate(90,183,207)"/></g></svg>