<?xml version="1.0" encoding="utf-8"?><!DOCTYPE svg PUBLIC "-//W3C//DTD SVG 1.1//EN" "http://www.w3.org/Graphics/SVG/1.1/DTD/svg11.dtd"><svg xmlns:xlink="http://www.w3.org/1999/xlink" xmlns="http://www.w3.org/2000/svg" id="map" viewBox="0 0 246 246" width="200" height="200" data-dot="6"><rect x="0" y="0" height="246" width="246" fill="#ffffff"/><defs/><g fill="#000000"><circle cx="33" cy="213" r="9" transform="rotate(-90,33,213)"/><path clip-rule="evenodd" class="svgeye" d="M 33 192a 21 21 0 1 0 0.1 0zm 0 6a 15 15 0 1 1 -0.1 0Z" transform="rotate(-90,33,213)"/><circle cx="213" cy="33" r="9" transform="rotate(90,213,33)"/><path clip-rule="evenodd" class="svgeye" d="M 213 12a 21 21 0 1 0 0.1 0zm 0 6a 15 15 0 1 1 -0.1 0Z" transform="rotate(90,213,33)"/><circle cx="33" cy="33" r="9" transform="rotate(0,33,33)"/><path clip-rule="evenodd" class="svgeye" d="M 33 12a 21 21 0 1 0 0.1 0zm 0 6a 15 15 0 1 1 -0.1 0Z" transform="rotate(0,33,33)"/><path d="M 60 12v 6h 3a 3 3, 0, 0, 0, 0 -6" transform="rotate(180,63,15)"/><path d="M 66 12v 6h 6a 6 6, 0, 0, 0, -6 -6" transform="rotate(0,69,15)"/><circle cx="93" cy="15" r="3" transform="rotate(0,93,15)"/><path d="M 108 12v 6h 3a 3 3, 0, 0, 0, 0 -6" transform="rotate(180,111,15)"/><path d="M 114 12v 6h 6a 6 6, 0, 0, 0, -6 -6" transform="rotate(0,117,15)"/><path d="M 126 12v 6h 3a 3 3, 0, 0, 0, 0 -6" transform="rotate(-90,129,15)"/><path d="M 138 12v 6h 3a 3 3, 0, 0, 0, 0 -6" transform="rotate(180,141,15)"/><rect x="144" y="12" width="6" height="6" transform="rotate(0,147,15)"/><rect x="150" y="12" width="6" height="6" transform="rotate(0,153,15)"/><path d="M 156 12v 6h 6a 6 6, 0, 0, 0, -6 -6" transform="rotate(0,159,15)"/><rect x="66" y="18" width="6" height="6" transform="rotate(0,69,21)"/><rect x="72" y="18" width="6" height="6" transform="rotate(0,75,21)"/><path d="M 78 18v 6h 6a 6 6, 0, 0, 0, -6 -6" transform="rotate(0,81,21)"/><path d="M 114 18v 6h 6a 6 6, 0, 0, 0, -6 -6" transform="rotate(180,117,21)"/><rect x="120" y="18" width="6" height="6" transform="rotate(0,123,21)"/><rect x="126" y="18" width="6" height="6" transform="rotate(0,129,21)"/><path d="M 132 18v 6h 3a 3 3, 0, 0, 0, 0 -6" transform="rotate(0,135,21)"/><path d="M 156 18v 6h 6a 6 6, 0, 0, 0, -6 -6" transform="rotate(180,159,21)"/><path d="M 162 18v 6h 3a 3 3, 0, 0, 0, 0 -6" transform="rotate(0,165,21)"/><path d="M 174 18v 6h 6a 6 6, 0, 0, 0, -6 -6" transform="rotate(-90,177,21)"/><path d="M 180 18v 6h 6a 6 6, 0, 0, 0, -6 -6" transform="rotate(0,183,21)"/><path d="M 66 24v 6h 3a 3 3, 0, 0, 0, 0 -6" transform="rotate(90,69,27)"/><path d="M 78 24v 6h 6a 6 6, 0, 0, 0, -6 -6" transform="rotate(180,81,27)"/><path d="M 84 24v 6h 6a 6 6, 0, 0, 0, -6 -6" transform="rotate(0,87,27)"/><circle cx="99" cy="27" r="3" transform="rotate(0,99,27)"/><rect x="120" y="24" width="6" height="6" transform="rotate(0,123,27)"/><path d="M 138 24v 6h 3a 3 3, 0, 0, 0, 0 -6" transform="rotate(180,141,27)"/><path d="M 144 24v 6h 3a 3 3, 0, 0, 0, 0 -6" transform="rotate(0,147,27)"/><path d="M 174 24v 6h 6a 6 6, 0, 0, 0, -6 -6" transform="rotate(180,177,27)"/><path d="M 180 24v 6h 6a 6 6, 0, 0, 0, -6 -6" transform="rotate(90,183,27)"/><path d="M 84 30v 6h 3a 3 3, 0, 0, 0, 0 -6" transform="rotate(90,87,33)"/><path d="M 102 30v 6h 3a 3 3, 0, 0, 0, 0 -6" transform="rotate(180,105,33)"/><path d="M 108 30v 6h 3a 3 3, 0, 0, 0, 0 -6" transform="rotate(0,111,33)"/><path d="M 120 30v 6h 6a 6 6, 0, 0, 0, -6 -6" transform="rotate(180,123,33)"/><rect x="126" y="30" width="6" height="6" transform="rotate(0,129,33)"/><path d="M 132 30v 6h 3a 3 3, 0, 0, 0, 0 -6" transform="rotate(0,135,33)"/><circle cx="165" cy="33" r="3" transform="rotate(0,165,33)"/><path d="M 60 36v 6h 6a 6 6, 0, 0, 0, -6 -6" transform="rotate(-90,63,39)"/><path d="M 66 36v 6h 3a 3 3, 0, 0, 0, 0 -6" transform="rotate(0,69,39)"/><path d="M 78 36v 6h 3a 3 3, 0, 0, 0, 0 -6" transform="rotate(-90,81,39)"/><circle cx="117" cy="39" r="3" transform="rotate(0,117,39)"/><rect x="126" y="36" width="6" height="6" transform="rotate(0,129,39)"/><path d="M 138 36v 6h 3a 3 3, 0, 0, 0, 0 -6" transform="rotate(-90,141,39)"/><path d="M 150 36v 6h 3a 3 3, 0, 0, 0, 0 -6" transform="rotate(180,153,39)"/><path d="M 156 36v 6h 3a 3 3, 0, 0, 0, 0 -6" transform="rotate(0,159,39)"/><path d="M 168 36v 6h 3a 3 3, 0, 0, 0, 0 -6" transform="rotate(-90,171,39)"/><rect x="60" y="42" width="6" height="6" transform="rotate(0,63,45)"/><path d="M 72 42v 6h 6a 6 6, 0, 0, 0, -6 -6" transform="rotate(-90,75,45)"/><path d="M 78 42v 6h 6a 6 6, 0, 0, 0, -6 -6" transform="rotate(90,81,45)"/><path d="M 96 42v 6h 6a 6 6, 0, 0, 0, -6 -6" transform="rotate(-90,99,45)"/><rect x="102" y="42" width="6" height="6" transform="rotate(0,105,45)"/><path d="M 108 42v 6h 6a 6 6, 0, 0, 0, -6 -6" transform="rotate(0,111,45)"/><path d="M 120 42v 6h 6a 6 6, 0, 0, 0, -6 -6" transform="rotate(-90,123,45)"/><rect x="126" y="42" width="6" height="6" transform="rotate(0,129,45)"/><rect x="132" y="42" width="6" height="6" transform="rotate(0,135,45)"/><path d="M 138 42v 6h 6a 6 6, 0, 0, 0, -6 -6" transform="rotate(90,141,45)"/><path d="M 162 42v 6h 3a 3 3, 0, 0, 0, 0 -6" transform="rotate(180,165,45)"/><rect x="168" y="42" width="6" height="6" transform="rotate(0,171,45)"/><rect x="174" y="42" width="6" height="6" transform="rotate(0,177,45)"/><path d="M 180 42v 6h 6a 6 6, 0, 0, 0, -6 -6" transform="rotate(0,183,45)"/><path d="M 60 48v 6h 3a 3 3, 0, 0, 0, 0 -6" transform="rotate(90,63,51)"/><path d="M 72 48v 6h 3a 3 3, 0, 0, 0, 0 -6" transform="rotate(90,75,51)"/><circle cx="87" cy="51" r="3" transform="rotate(0,87,51)"/><rect x="96" y="48" width="6" height="6" transform="rotate(0,99,51)"/><rect x="108" y="48" width="6" height="6" transform="rotate(0,111,51)"/><rect x="120" y="48" width="6" height="6" transform="rotate(0,123,51)"/><path d="M 132 48v 6h 3a 3 3, 0, 0, 0, 0 -6" transform="rotate(90,135,51)"/><path d="M 144 48v 6h 3a 3 3, 0, 0, 0, 0 -6" transform="rotate(-90,147,51)"/><circle cx="159" cy="51" r="3" transform="rotate(0,159,51)"/><path d="M 168 48v 6h 3a 3 3, 0, 0, 0, 0 -6" transform="rotate(90,171,51)"/><rect x="180" y="48" width="6" height="6" transform="rotate(0,183,51)"/><circle cx="69" cy="57" r="3" transform="rotate(0,69,57)"/><path d="M 78 54v 6h 3a 3 3, 0, 0, 0, 0 -6" transform="rotate(-90,81,57)"/><rect x="96" y="54" width="6" height="6" transform="rotate(0,99,57)"/><path d="M 108 54v 6h 6a 6 6, 0, 0, 0, -6 -6" transform="rotate(180,111,57)"/><rect x="114" y="54" width="6" height="6" transform="rotate(0,117,57)"/><path d="M 120 54v 6h 6a 6 6, 0, 0, 0, -6 -6" transform="rotate(90,123,57)"/><path d="M 138 54v 6h 3a 3 3, 0, 0, 0, 0 -6" transform="rotate(180,141,57)"/><rect x="144" y="54" width="6" height="6" transform="rotate(0,147,57)"/><rect x="180" y="54" width="6" height="6" transform="rotate(0,183,57)"/><path d="M 18 60v 6h 6a 6 6, 0, 0, 0, -6 -6" transform="rotate(-90,21,63)"/><rect x="24" y="60" width="6" height="6" transform="rotate(0,27,63)"/><rect x="30" y="60" width="6" height="6" transform="rotate(0,33,63)"/><rect x="36" y="60" width="6" height="6" transform="rotate(0,39,63)"/><rect x="42" y="60" width="6" height="6" transform="rotate(0,45,63)"/><rect x="48" y="60" width="6" height="6" transform="rotate(0,51,63)"/><path d="M 54 60v 6h 6a 6 6, 0, 0, 0, -6 -6" transform="rotate(0,57,63)"/><path d="M 78 60v 6h 6a 6 6, 0, 0, 0, -6 -6" transform="rotate(180,81,63)"/><rect x="84" y="60" width="6" height="6" transform="rotate(0,87,63)"/><rect x="90" y="60" width="6" height="6" transform="rotate(0,93,63)"/><rect x="96" y="60" width="6" height="6" transform="rotate(0,99,63)"/><path d="M 102 60v 6h 6a 6 6, 0, 0, 0, -6 -6" transform="rotate(0,105,63)"/><rect x="144" y="60" width="6" height="6" transform="rotate(0,147,63)"/><path d="M 156 60v 6h 3a 3 3, 0, 0, 0, 0 -6" transform="rotate(180,159,63)"/><path d="M 162 60v 6h 6a 6 6, 0, 0, 0, -6 -6" transform="rotate(0,165,63)"/><path d="M 180 60v 6h 3a 3 3, 0, 0, 0, 0 -6" transform="rotate(90,183,63)"/><path d="M 198 60v 6h 3a 3 3, 0, 0, 0, 0 -6" transform="rotate(180,201,63)"/><path d="M 204 60v 6h 3a 3 3, 0, 0, 0, 0 -6" transform="rotate(0,207,63)"/><circle cx="231" cy="63" r="3" transform="rotate(0,231,63)"/><path d="M 12 66v 6h 6a 6 6, 0, 0, 0, -6 -6" transform="rotate(-90,15,69)"/><rect x="18" y="66" width="6" height="6" transform="rotate(0,21,69)"/><path d="M 24 66v 6h 6a 6 6, 0, 0, 0, -6 -6" transform="rotate(90,27,69)"/><rect x="36" y="66" width="6" height="6" transform="rotate(0,39,69)"/><rect x="54" y="66" width="6" height="6" transform="rotate(0,57,69)"/><path d="M 60 66v 6h 3a 3 3, 0, 0, 0, 0 -6" transform="rotate(0,63,69)"/><rect x="90" y="66" width="6" height="6" transform="rotate(0,93,69)"/><rect x="102" y="66" width="6" height="6" transform="rotate(0,105,69)"/><path d="M 114 66v 6h 6a 6 6, 0, 0, 0, -6 -6" transform="rotate(-90,117,69)"/><path d="M 120 66v 6h 3a 3 3, 0, 0, 0, 0 -6" transform="rotate(0,123,69)"/><path d="M 138 66v 6h 3a 3 3, 0, 0, 0, 0 -6" transform="rotate(180,141,69)"/><rect x="144" y="66" width="6" height="6" transform="rotate(0,147,69)"/><path d="M 150 66v 6h 3a 3 3, 0, 0, 0, 0 -6" transform="rotate(0,153,69)"/><rect x="162" y="66" width="6" height="6" transform="rotate(0,165,69)"/><circle cx="189" cy="69" r="3" transform="rotate(0,189,69)"/><path d="M 216 66v 6h 3a 3 3, 0, 0, 0, 0 -6" transform="rotate(-90,219,69)"/><path d="M 12 72v 6h 3a 3 3, 0, 0, 0, 0 -6" transform="rotate(90,15,75)"/><path d="M 36 72v 6h 3a 3 3, 0, 0, 0, 0 -6" transform="rotate(90,39,75)"/><path d="M 48 72v 6h 3a 3 3, 0, 0, 0, 0 -6" transform="rotate(180,51,75)"/><path d="M 54 72v 6h 6a 6 6, 0, 0, 0, -6 -6" transform="rotate(90,57,75)"/><circle cx="69" cy="75" r="3" transform="rotate(0,69,75)"/><path d="M 78 72v 6h 6a 6 6, 0, 0, 0, -6 -6" transform="rotate(-90,81,75)"/><rect x="84" y="72" width="6" height="6" transform="rotate(0,87,75)"/><path d="M 90 72v 6h 6a 6 6, 0, 0, 0, -6 -6" transform="rotate(90,93,75)"/><path d="M 102 72v 6h 6a 6 6, 0, 0, 0, -6 -6" transform="rotate(180,105,75)"/><rect x="108" y="72" width="6" height="6" transform="rotate(0,111,75)"/><path d="M 114 72v 6h 6a 6 6, 0, 0, 0, -6 -6" transform="rotate(90,117,75)"/><path d="M 126 72v 6h 3a 3 3, 0, 0, 0, 0 -6" transform="rotate(180,129,75)"/><path d="M 132 72v 6h 6a 6 6, 0, 0, 0, -6 -6" transform="rotate(0,135,75)"/><path d="M 162 72v 6h 6a 6 6, 0, 0, 0, -6 -6" transform="rotate(180,165,75)"/><rect x="168" y="72" width="6" height="6" transform="rotate(0,171,75)"/><path d="M 174 72v 6h 3a 3 3, 0, 0, 0, 0 -6" transform="rotate(0,177,75)"/><path d="M 192 72v 6h 6a 6 6, 0, 0, 0, -6 -6" transform="rotate(-90,195,75)"/><path d="M 198 72v 6h 6a 6 6, 0, 0, 0, -6 -6" transform="rotate(0,201,75)"/><path d="M 210 72v 6h 6a 6 6, 0, 0, 0, -6 -6" transform="rotate(-90,213,75)"/><path d="M 216 72v 6h 6a 6 6, 0, 0, 0, -6 -6" transform="rotate(90,219,75)"/><circle cx="231" cy="75" r="3" transform="rotate(0,231,75)"/><path d="M 30 78v 6h 3a 3 3, 0, 0, 0, 0 -6" transform="rotate(-90,33,81)"/><circle cx="45" cy="81" r="3" transform="rotate(0,45,81)"/><path d="M 72 78v 6h 6a 6 6, 0, 0, 0, -6 -6" transform="rotate(-90,75,81)"/><rect x="78" y="78" width="6" height="6" transform="rotate(0,81,81)"/><path d="M 84 78v 6h 6a 6 6, 0, 0, 0, -6 -6" transform="rotate(90,87,81)"/><circle cx="99" cy="81" r="3" transform="rotate(0,99,81)"/><rect x="108" y="78" width="6" height="6" transform="rotate(0,111,81)"/><path d="M 132 78v 6h 6a 6 6, 0, 0, 0, -6 -6" transform="rotate(180,135,81)"/><path d="M 138 78v 6h 3a 3 3, 0, 0, 0, 0 -6" transform="rotate(0,141,81)"/><path d="M 150 78v 6h 3a 3 3, 0, 0, 0, 0 -6" transform="rotate(-90,153,81)"/><rect x="168" y="78" width="6" height="6" transform="rotate(0,171,81)"/><rect x="192" y="78" width="6" height="6" transform="rotate(0,195,81)"/><path d="M 198 78v 6h 6a 6 6, 0, 0, 0, -6 -6" transform="rotate(90,201,81)"/><rect x="210" y="78" width="6" height="6" transform="rotate(0,213,81)"/><path d="M 222 78v 6h 3a 3 3, 0, 0, 0, 0 -6" transform="rotate(-90,225,81)"/><path d="M 30 84v 6h 6a 6 6, 0, 0, 0, -6 -6" transform="rotate(180,33,87)"/><path d="M 36 84v 6h 3a 3 3, 0, 0, 0, 0 -6" transform="rotate(0,39,87)"/><circle cx="51" cy="87" r="3" transform="rotate(0,51,87)"/><path d="M 66 84v 6h 6a 6 6, 0, 0, 0, -6 -6" transform="rotate(-90,69,87)"/><rect x="72" y="84" width="6" height="6" transform="rotate(0,75,87)"/><path d="M 78 84v 6h 6a 6 6, 0, 0, 0, -6 -6" transform="rotate(90,81,87)"/><rect x="108" y="84" width="6" height="6" transform="rotate(0,111,87)"/><rect x="114" y="84" width="6" height="6" transform="rotate(0,117,87)"/><path d="M 120 84v 6h 3a 3 3, 0, 0, 0, 0 -6" transform="rotate(0,123,87)"/><rect x="150" y="84" width="6" height="6" transform="rotate(0,153,87)"/><path d="M 162 84v 6h 6a 6 6, 0, 0, 0, -6 -6" transform="rotate(-90,165,87)"/><rect x="168" y="84" width="6" height="6" transform="rotate(0,171,87)"/><rect x="174" y="84" width="6" height="6" transform="rotate(0,177,87)"/><rect x="180" y="84" width="6" height="6" transform="rotate(0,183,87)"/><rect x="186" y="84" width="6" height="6" transform="rotate(0,189,87)"/><path d="M 192 84v 6h 6a 6 6, 0, 0, 0, -6 -6" transform="rotate(90,195,87)"/><rect x="210" y="84" width="6" height="6" transform="rotate(0,213,87)"/><rect x="216" y="84" width="6" height="6" transform="rotate(0,219,87)"/><rect x="222" y="84" width="6" height="6" transform="rotate(0,225,87)"/><path d="M 18 90v 6h 6a 6 6, 0, 0, 0, -6 -6" transform="rotate(-90,21,93)"/><path d="M 24 90v 6h 3a 3 3, 0, 0, 0, 0 -6" transform="rotate(0,27,93)"/><path d="M 54 90v 6h 3a 3 3, 0, 0, 0, 0 -6" transform="rotate(180,57,93)"/><rect x="60" y="90" width="6" height="6" transform="rotate(0,63,93)"/><rect x="66" y="90" width="6" height="6" transform="rotate(0,69,93)"/><path d="M 72 90v 6h 6a 6 6, 0, 0, 0, -6 -6" transform="rotate(90,75,93)"/><path d="M 84 90v 6h 6a 6 6, 0, 0, 0, -6 -6" transform="rotate(-90,87,93)"/><path d="M 90 90v 6h 3a 3 3, 0, 0, 0, 0 -6" transform="rotate(0,93,93)"/><path d="M 102 90v 6h 6a 6 6, 0, 0, 0, -6 -6" transform="rotate(-90,105,93)"/><path d="M 108 90v 6h 6a 6 6, 0, 0, 0, -6 -6" transform="rotate(90,111,93)"/><path d="M 132 90v 6h 3a 3 3, 0, 0, 0, 0 -6" transform="rotate(180,135,93)"/><rect x="138" y="90" width="6" height="6" transform="rotate(0,141,93)"/><rect x="144" y="90" width="6" height="6" transform="rotate(0,147,93)"/><path d="M 150 90v 6h 6a 6 6, 0, 0, 0, -6 -6" transform="rotate(90,153,93)"/><rect x="162" y="90" width="6" height="6" transform="rotate(0,165,93)"/><rect x="186" y="90" width="6" height="6" transform="rotate(0,189,93)"/><path d="M 198 90v 6h 3a 3 3, 0, 0, 0, 0 -6" transform="rotate(-90,201,93)"/><rect x="210" y="90" width="6" height="6" transform="rotate(0,213,93)"/><rect x="216" y="90" width="6" height="6" transform="rotate(0,219,93)"/><rect x="222" y="90" width="6" height="6" transform="rotate(0,225,93)"/><path d="M 12 96v 6h 3a 3 3, 0, 0, 0, 0 -6" transform="rotate(180,15,99)"/><path d="M 18 96v 6h 6a 6 6, 0, 0, 0, -6 -6" transform="rotate(90,21,99)"/><circle cx="33" cy="99" r="3" transform="rotate(0,33,99)"/><path d="M 42 96v 6h 3a 3 3, 0, 0, 0, 0 -6" transform="rotate(180,45,99)"/><path d="M 48 96v 6h 3a 3 3, 0, 0, 0, 0 -6" transform="rotate(0,51,99)"/><rect x="60" y="96" width="6" height="6" transform="rotate(0,63,99)"/><path d="M 84 96v 6h 3a 3 3, 0, 0, 0, 0 -6" transform="rotate(90,87,99)"/><path d="M 96 96v 6h 6a 6 6, 0, 0, 0, -6 -6" transform="rotate(-90,99,99)"/><rect x="102" y="96" width="6" height="6" transform="rotate(0,105,99)"/><path d="M 114 96v 6h 3a 3 3, 0, 0, 0, 0 -6" transform="rotate(-90,117,99)"/><path d="M 126 96v 6h 3a 3 3, 0, 0, 0, 0 -6" transform="rotate(-90,129,99)"/><rect x="138" y="96" width="6" height="6" transform="rotate(0,141,99)"/><path d="M 156 96v 6h 6a 6 6, 0, 0, 0, -6 -6" transform="rotate(-90,159,99)"/><rect x="162" y="96" width="6" height="6" transform="rotate(0,165,99)"/><rect x="168" y="96" width="6" height="6" transform="rotate(0,171,99)"/><rect x="174" y="96" width="6" height="6" transform="rotate(0,177,99)"/><rect x="180" y="96" width="6" height="6" transform="rotate(0,183,99)"/><path d="M 186 96v 6h 6a 6 6, 0, 0, 0, -6 -6" transform="rotate(90,189,99)"/><rect x="198" y="96" width="6" height="6" transform="rotate(0,201,99)"/><path d="M 210 96v 6h 3a 3 3, 0, 0, 0, 0 -6" transform="rotate(90,213,99)"/><path d="M 222 96v 6h 6a 6 6, 0, 0, 0, -6 -6" transform="rotate(180,225,99)"/><path d="M 228 96v 6h 6a 6 6, 0, 0, 0, -6 -6" transform="rotate(0,231,99)"/><path d="M 36 102v 6h 3a 3 3, 0, 0, 0, 0 -6" transform="rotate(-90,39,105)"/><path d="M 54 102v 6h 6a 6 6, 0, 0, 0, -6 -6" transform="rotate(-90,57,105)"/><rect x="60" y="102" width="6" height="6" transform="rotate(0,63,105)"/><path d="M 66 102v 6h 3a 3 3, 0, 0, 0, 0 -6" transform="rotate(0,69,105)"/><path d="M 90 102v 6h 6a 6 6, 0, 0, 0, -6 -6" transform="rotate(-90,93,105)"/><rect x="96" y="102" width="6" height="6" transform="rotate(0,99,105)"/><path d="M 102 102v 6h 6a 6 6, 0, 0, 0, -6 -6" transform="rotate(90,105,105)"/><path d="M 114 102v 6h 6a 6 6, 0, 0, 0, -6 -6" transform="rotate(180,117,105)"/><rect x="120" y="102" width="6" height="6" transform="rotate(0,123,105)"/><rect x="126" y="102" width="6" height="6" transform="rotate(0,129,105)"/><rect x="138" y="102" width="6" height="6" transform="rotate(0,141,105)"/><rect x="156" y="102" width="6" height="6" transform="rotate(0,159,105)"/><rect x="168" y="102" width="6" height="6" transform="rotate(0,171,105)"/><rect x="174" y="102" width="6" height="6" transform="rotate(0,177,105)"/><path d="M 180 102v 6h 6a 6 6, 0, 0, 0, -6 -6" transform="rotate(90,183,105)"/><path d="M 198 102v 6h 3a 3 3, 0, 0, 0, 0 -6" transform="rotate(90,201,105)"/><rect x="228" y="102" width="6" height="6" transform="rotate(0,231,105)"/><path d="M 18 108v 6h 3a 3 3, 0, 0, 0, 0 -6" transform="rotate(-90,21,111)"/><path d="M 36 108v 6h 3a 3 3, 0, 0, 0, 0 -6" transform="rotate(90,39,111)"/><path d="M 48 108v 6h 3a 3 3, 0, 0, 0, 0 -6" transform="rotate(180,51,111)"/><path d="M 54 108v 6h 6a 6 6, 0, 0, 0, -6 -6" transform="rotate(90,57,111)"/><path d="M 90 108v 6h 3a 3 3, 0, 0, 0, 0 -6" transform="rotate(90,93,111)"/><path d="M 108 108v 6h 3a 3 3, 0, 0, 0, 0 -6" transform="rotate(-90,111,111)"/><rect x="126" y="108" width="6" height="6" transform="rotate(0,129,111)"/><path d="M 138 108v 6h 3a 3 3, 0, 0, 0, 0 -6" transform="rotate(90,141,111)"/><path d="M 156 108v 6h 6a 6 6, 0, 0, 0, -6 -6" transform="rotate(180,159,111)"/><rect x="162" y="108" width="6" height="6" transform="rotate(0,165,111)"/><rect x="168" y="108" width="6" height="6" transform="rotate(0,171,111)"/><path d="M 174 108v 6h 6a 6 6, 0, 0, 0, -6 -6" transform="rotate(90,177,111)"/><path d="M 186 108v 6h 3a 3 3, 0, 0, 0, 0 -6" transform="rotate(180,189,111)"/><path d="M 192 108v 6h 3a 3 3, 0, 0, 0, 0 -6" transform="rotate(0,195,111)"/><circle cx="207" cy="111" r="3" transform="rotate(0,207,111)"/><circle cx="219" cy="111" r="3" transform="rotate(0,219,111)"/><path d="M 228 108v 6h 3a 3 3, 0, 0, 0, 0 -6" transform="rotate(90,231,111)"/><rect x="18" y="114" width="6" height="6" transform="rotate(0,21,117)"/><rect x="24" y="114" width="6" height="6" transform="rotate(0,27,117)"/><path d="M 30 114v 6h 6a 6 6, 0, 0, 0, -6 -6" transform="rotate(0,33,117)"/><path d="M 84 114v 6h 3a 3 3, 0, 0, 0, 0 -6" transform="rotate(-90,87,117)"/><path d="M 96 114v 6h 3a 3 3, 0, 0, 0, 0 -6" transform="rotate(-90,99,117)"/><rect x="108" y="114" width="6" height="6" transform="rotate(0,111,117)"/><path d="M 120 114v 6h 6a 6 6, 0, 0, 0, -6 -6" transform="rotate(-90,123,117)"/><rect x="126" y="114" width="6" height="6" transform="rotate(0,129,117)"/><rect x="168" y="114" width="6" height="6" transform="rotate(0,171,117)"/><path d="M 180 114v 6h 3a 3 3, 0, 0, 0, 0 -6" transform="rotate(-90,183,117)"/><path d="M 210 114v 6h 3a 3 3, 0, 0, 0, 0 -6" transform="rotate(-90,213,117)"/><rect x="18" y="120" width="6" height="6" transform="rotate(0,21,123)"/><rect x="24" y="120" width="6" height="6" transform="rotate(0,27,123)"/><rect x="30" y="120" width="6" height="6" transform="rotate(0,33,123)"/><rect x="36" y="120" width="6" height="6" transform="rotate(0,39,123)"/><rect x="42" y="120" width="6" height="6" transform="rotate(0,45,123)"/><path d="M 48 120v 6h 3a 3 3, 0, 0, 0, 0 -6" transform="rotate(0,51,123)"/><path d="M 66 120v 6h 6a 6 6, 0, 0, 0, -6 -6" transform="rotate(-90,69,123)"/><path d="M 72 120v 6h 3a 3 3, 0, 0, 0, 0 -6" transform="rotate(0,75,123)"/><path d="M 84 120v 6h 3a 3 3, 0, 0, 0, 0 -6" transform="rotate(90,87,123)"/><path d="M 96 120v 6h 6a 6 6, 0, 0, 0, -6 -6" transform="rotate(180,99,123)"/><rect x="102" y="120" width="6" height="6" transform="rotate(0,105,123)"/><rect x="108" y="120" width="6" height="6" transform="rotate(0,111,123)"/><rect x="114" y="120" width="6" height="6" transform="rotate(0,117,123)"/><rect x="120" y="120" width="6" height="6" transform="rotate(0,123,123)"/><path d="M 126 120v 6h 6a 6 6, 0, 0, 0, -6 -6" transform="rotate(90,129,123)"/><circle cx="147" cy="123" r="3" transform="rotate(0,147,123)"/><rect x="168" y="120" width="6" height="6" transform="rotate(0,171,123)"/><rect x="174" y="120" width="6" height="6" transform="rotate(0,177,123)"/><rect x="180" y="120" width="6" height="6" transform="rotate(0,183,123)"/><rect x="186" y="120" width="6" height="6" transform="rotate(0,189,123)"/><rect x="192" y="120" width="6" height="6" transform="rotate(0,195,123)"/><path d="M 198 120v 6h 6a 6 6, 0, 0, 0, -6 -6" transform="rotate(0,201,123)"/><path d="M 210 120v 6h 3a 3 3, 0, 0, 0, 0 -6" transform="rotate(90,213,123)"/><path d="M 222 120v 6h 3a 3 3, 0, 0, 0, 0 -6" transform="rotate(180,225,123)"/><path d="M 228 120v 6h 3a 3 3, 0, 0, 0, 0 -6" transform="rotate(0,231,123)"/><path d="M 12 126v 6h 6a 6 6, 0, 0, 0, -6 -6" transform="rotate(-90,15,129)"/><rect x="18" y="126" width="6" height="6" transform="rotate(0,21,129)"/><rect x="24" y="126" width="6" height="6" transform="rotate(0,27,129)"/><rect x="30" y="126" width="6" height="6" transform="rotate(0,33,129)"/><path d="M 60 126v 6h 6a 6 6, 0, 0, 0, -6 -6" transform="rotate(-90,63,129)"/><path d="M 66 126v 6h 6a 6 6, 0, 0, 0, -6 -6" transform="rotate(90,69,129)"/><path d="M 78 126v 6h 3a 3 3, 0, 0, 0, 0 -6" transform="rotate(-90,81,129)"/><path d="M 102 126v 6h 6a 6 6, 0, 0, 0, -6 -6" transform="rotate(180,105,129)"/><rect x="108" y="126" width="6" height="6" transform="rotate(0,111,129)"/><path d="M 132 126v 6h 3a 3 3, 0, 0, 0, 0 -6" transform="rotate(180,135,129)"/><path d="M 138 126v 6h 3a 3 3, 0, 0, 0, 0 -6" transform="rotate(0,141,129)"/><rect x="168" y="126" width="6" height="6" transform="rotate(0,171,129)"/><path d="M 180 126v 6h 3a 3 3, 0, 0, 0, 0 -6" transform="rotate(90,183,129)"/><rect x="192" y="126" width="6" height="6" transform="rotate(0,195,129)"/><rect x="198" y="126" width="6" height="6" transform="rotate(0,201,129)"/><rect x="12" y="132" width="6" height="6" transform="rotate(0,15,135)"/><rect x="18" y="132" width="6" height="6" transform="rotate(0,21,135)"/><path d="M 30 132v 6h 3a 3 3, 0, 0, 0, 0 -6" transform="rotate(90,33,135)"/><circle cx="51" cy="135" r="3" transform="rotate(0,51,135)"/><path d="M 60 132v 6h 3a 3 3, 0, 0, 0, 0 -6" transform="rotate(90,63,135)"/><path d="M 78 132v 6h 6a 6 6, 0, 0, 0, -6 -6" transform="rotate(180,81,135)"/><rect x="84" y="132" width="6" height="6" transform="rotate(0,87,135)"/><rect x="90" y="132" width="6" height="6" transform="rotate(0,93,135)"/><path d="M 96 132v 6h 6a 6 6, 0, 0, 0, -6 -6" transform="rotate(0,99,135)"/><path d="M 108 132v 6h 3a 3 3, 0, 0, 0, 0 -6" transform="rotate(90,111,135)"/><path d="M 120 132v 6h 6a 6 6, 0, 0, 0, -6 -6" transform="rotate(-90,123,135)"/><path d="M 126 132v 6h 3a 3 3, 0, 0, 0, 0 -6" transform="rotate(0,129,135)"/><circle cx="147" cy="135" r="3" transform="rotate(0,147,135)"/><path d="M 156 132v 6h 3a 3 3, 0, 0, 0, 0 -6" transform="rotate(-90,159,135)"/><path d="M 168 132v 6h 3a 3 3, 0, 0, 0, 0 -6" transform="rotate(90,171,135)"/><path d="M 192 132v 6h 6a 6 6, 0, 0, 0, -6 -6" transform="rotate(180,195,135)"/><rect x="198" y="132" width="6" height="6" transform="rotate(0,201,135)"/><rect x="204" y="132" width="6" height="6" transform="rotate(0,207,135)"/><rect x="210" y="132" width="6" height="6" transform="rotate(0,213,135)"/><path d="M 216 132v 6h 3a 3 3, 0, 0, 0, 0 -6" transform="rotate(0,219,135)"/><path d="M 12 138v 6h 6a 6 6, 0, 0, 0, -6 -6" transform="rotate(180,15,141)"/><rect x="18" y="138" width="6" height="6" transform="rotate(0,21,141)"/><circle cx="45" cy="141" r="3" transform="rotate(0,45,141)"/><path d="M 66 138v 6h 3a 3 3, 0, 0, 0, 0 -6" transform="rotate(180,69,141)"/><path d="M 72 138v 6h 6a 6 6, 0, 0, 0, -6 -6" transform="rotate(0,75,141)"/><path d="M 84 138v 6h 3a 3 3, 0, 0, 0, 0 -6" transform="rotate(90,87,141)"/><rect x="96" y="138" width="6" height="6" transform="rotate(0,99,141)"/><path d="M 114 138v 6h 6a 6 6, 0, 0, 0, -6 -6" transform="rotate(-90,117,141)"/><rect x="120" y="138" width="6" height="6" transform="rotate(0,123,141)"/><path d="M 138 138v 6h 3a 3 3, 0, 0, 0, 0 -6" transform="rotate(-90,141,141)"/><path d="M 150 138v 6h 3a 3 3, 0, 0, 0, 0 -6" transform="rotate(180,153,141)"/><rect x="156" y="138" width="6" height="6" transform="rotate(0,159,141)"/><circle cx="189" cy="141" r="3" transform="rotate(0,189,141)"/><path d="M 198 138v 6h 3a 3 3, 0, 0, 0, 0 -6" transform="rotate(90,201,141)"/><path d="M 18 144v 6h 3a 3 3, 0, 0, 0, 0 -6" transform="rotate(90,21,147)"/><path d="M 36 144v 6h 3a 3 3, 0, 0, 0, 0 -6" transform="rotate(-90,39,147)"/><path d="M 48 144v 6h 3a 3 3, 0, 0, 0, 0 -6" transform="rotate(180,51,147)"/><path d="M 54 144v 6h 3a 3 3, 0, 0, 0, 0 -6" transform="rotate(0,57,147)"/><path d="M 72 144v 6h 6a 6 6, 0, 0, 0, -6 -6" transform="rotate(180,75,147)"/><path d="M 78 144v 6h 6a 6 6, 0, 0, 0, -6 -6" transform="rotate(0,81,147)"/><path d="M 90 144v 6h 6a 6 6, 0, 0, 0, -6 -6" transform="rotate(-90,93,147)"/><rect x="96" y="144" width="6" height="6" transform="rotate(0,99,147)"/><path d="M 114 144v 6h 6a 6 6, 0, 0, 0, -6 -6" transform="rotate(180,117,147)"/><rect x="120" y="144" width="6" height="6" transform="rotate(0,123,147)"/><path d="M 126 144v 6h 3a 3 3, 0, 0, 0, 0 -6" transform="rotate(0,129,147)"/><rect x="138" y="144" width="6" height="6" transform="rotate(0,141,147)"/><path d="M 156 144v 6h 3a 3 3, 0, 0, 0, 0 -6" transform="rotate(90,159,147)"/><path d="M 168 144v 6h 6a 6 6, 0, 0, 0, -6 -6" transform="rotate(-90,171,147)"/><path d="M 174 144v 6h 3a 3 3, 0, 0, 0, 0 -6" transform="rotate(0,177,147)"/><circle cx="195" cy="147" r="3" transform="rotate(0,195,147)"/><circle cx="231" cy="147" r="3" transform="rotate(0,231,147)"/><path d="M 12 150v 6h 3a 3 3, 0, 0, 0, 0 -6" transform="rotate(-90,15,153)"/><circle cx="27" cy="153" r="3" transform="rotate(0,27,153)"/><path d="M 36 150v 6h 3a 3 3, 0, 0, 0, 0 -6" transform="rotate(90,39,153)"/><rect x="78" y="150" width="6" height="6" transform="rotate(0,81,153)"/><path d="M 90 150v 6h 6a 6 6, 0, 0, 0, -6 -6" transform="rotate(180,93,153)"/><rect x="96" y="150" width="6" height="6" transform="rotate(0,99,153)"/><path d="M 132 150v 6h 6a 6 6, 0, 0, 0, -6 -6" transform="rotate(-90,135,153)"/><path d="M 138 150v 6h 6a 6 6, 0, 0, 0, -6 -6" transform="rotate(90,141,153)"/><circle cx="153" cy="153" r="3" transform="rotate(0,153,153)"/><path d="M 168 150v 6h 3a 3 3, 0, 0, 0, 0 -6" transform="rotate(90,171,153)"/><circle cx="201" cy="153" r="3" transform="rotate(0,201,153)"/><circle cx="213" cy="153" r="3" transform="rotate(0,213,153)"/><rect x="12" y="156" width="6" height="6" transform="rotate(0,15,159)"/><path d="M 18 156v 6h 6a 6 6, 0, 0, 0, -6 -6" transform="rotate(0,21,159)"/><path d="M 30 156v 6h 3a 3 3, 0, 0, 0, 0 -6" transform="rotate(-90,33,159)"/><path d="M 48 156v 6h 3a 3 3, 0, 0, 0, 0 -6" transform="rotate(180,51,159)"/><path d="M 54 156v 6h 3a 3 3, 0, 0, 0, 0 -6" transform="rotate(0,57,159)"/><path d="M 72 156v 6h 3a 3 3, 0, 0, 0, 0 -6" transform="rotate(180,75,159)"/><rect x="78" y="156" width="6" height="6" transform="rotate(0,81,159)"/><path d="M 84 156v 6h 3a 3 3, 0, 0, 0, 0 -6" transform="rotate(0,87,159)"/><rect x="96" y="156" width="6" height="6" transform="rotate(0,99,159)"/><rect x="102" y="156" width="6" height="6" transform="rotate(0,105,159)"/><rect x="108" y="156" width="6" height="6" transform="rotate(0,111,159)"/><rect x="114" y="156" width="6" height="6" transform="rotate(0,117,159)"/><path d="M 120 156v 6h 6a 6 6, 0, 0, 0, -6 -6" transform="rotate(0,123,159)"/><rect x="132" y="156" width="6" height="6" transform="rotate(0,135,159)"/><path d="M 144 156v 6h 3a 3 3, 0, 0, 0, 0 -6" transform="rotate(-90,147,159)"/><path d="M 156 156v 6h 6a 6 6, 0, 0, 0, -6 -6" transform="rotate(-90,159,159)"/><path d="M 162 156v 6h 3a 3 3, 0, 0, 0, 0 -6" transform="rotate(0,165,159)"/><circle cx="195" cy="159" r="3" transform="rotate(0,195,159)"/><circle cx="207" cy="159" r="3" transform="rotate(0,207,159)"/><path d="M 216 156v 6h 6a 6 6, 0, 0, 0, -6 -6" transform="rotate(-90,219,159)"/><path d="M 222 156v 6h 3a 3 3, 0, 0, 0, 0 -6" transform="rotate(0,225,159)"/><rect x="12" y="162" width="6" height="6" transform="rotate(0,15,165)"/><path d="M 18 162v 6h 6a 6 6, 0, 0, 0, -6 -6" transform="rotate(90,21,165)"/><path d="M 30 162v 6h 3a 3 3, 0, 0, 0, 0 -6" transform="rotate(90,33,165)"/><path d="M 42 162v 6h 3a 3 3, 0, 0, 0, 0 -6" transform="rotate(-90,45,165)"/><path d="M 60 162v 6h 3a 3 3, 0, 0, 0, 0 -6" transform="rotate(180,63,165)"/><path d="M 66 162v 6h 6a 6 6, 0, 0, 0, -6 -6" transform="rotate(0,69,165)"/><path d="M 90 162v 6h 3a 3 3, 0, 0, 0, 0 -6" transform="rotate(180,93,165)"/><rect x="96" y="162" width="6" height="6" transform="rotate(0,99,165)"/><rect x="102" y="162" width="6" height="6" transform="rotate(0,105,165)"/><path d="M 114 162v 6h 6a 6 6, 0, 0, 0, -6 -6" transform="rotate(180,117,165)"/><rect x="120" y="162" width="6" height="6" transform="rotate(0,123,165)"/><rect x="126" y="162" width="6" height="6" transform="rotate(0,129,165)"/><rect x="132" y="162" width="6" height="6" transform="rotate(0,135,165)"/><rect x="138" y="162" width="6" height="6" transform="rotate(0,141,165)"/><rect x="144" y="162" width="6" height="6" transform="rotate(0,147,165)"/><rect x="150" y="162" width="6" height="6" transform="rotate(0,153,165)"/><path d="M 156 162v 6h 6a 6 6, 0, 0, 0, -6 -6" transform="rotate(90,159,165)"/><path d="M 168 162v 6h 3a 3 3, 0, 0, 0, 0 -6" transform="rotate(180,171,165)"/><rect x="174" y="162" width="6" height="6" transform="rotate(0,177,165)"/><rect x="180" y="162" width="6" height="6" transform="rotate(0,183,165)"/><path d="M 186 162v 6h 3a 3 3, 0, 0, 0, 0 -6" transform="rotate(0,189,165)"/><rect x="216" y="162" width="6" height="6" transform="rotate(0,219,165)"/><rect x="12" y="168" width="6" height="6" transform="rotate(0,15,171)"/><rect x="42" y="168" width="6" height="6" transform="rotate(0,45,171)"/><rect x="48" y="168" width="6" height="6" transform="rotate(0,51,171)"/><path d="M 54 168v 6h 3a 3 3, 0, 0, 0, 0 -6" transform="rotate(0,57,171)"/><rect x="66" y="168" width="6" height="6" transform="rotate(0,69,171)"/><path d="M 78 168v 6h 3a 3 3, 0, 0, 0, 0 -6" transform="rotate(-90,81,171)"/><path d="M 102 168v 6h 3a 3 3, 0, 0, 0, 0 -6" transform="rotate(90,105,171)"/><path d="M 126 168v 6h 3a 3 3, 0, 0, 0, 0 -6" transform="rotate(90,129,171)"/><rect x="138" y="168" width="6" height="6" transform="rotate(0,141,171)"/><rect x="144" y="168" width="6" height="6" transform="rotate(0,147,171)"/><rect x="174" y="168" width="6" height="6" transform="rotate(0,177,171)"/><rect x="180" y="168" width="6" height="6" transform="rotate(0,183,171)"/><circle cx="195" cy="171" r="3" transform="rotate(0,195,171)"/><path d="M 210 168v 6h 6a 6 6, 0, 0, 0, -6 -6" transform="rotate(-90,213,171)"/><path d="M 216 168v 6h 6a 6 6, 0, 0, 0, -6 -6" transform="rotate(90,219,171)"/><path d="M 228 168v 6h 3a 3 3, 0, 0, 0, 0 -6" transform="rotate(-90,231,171)"/><rect x="12" y="174" width="6" height="6" transform="rotate(0,15,177)"/><path d="M 36 174v 6h 6a 6 6, 0, 0, 0, -6 -6" transform="rotate(-90,39,177)"/><rect x="42" y="174" width="6" height="6" transform="rotate(0,45,177)"/><path d="M 60 174v 6h 6a 6 6, 0, 0, 0, -6 -6" transform="rotate(-90,63,177)"/><rect x="66" y="174" width="6" height="6" transform="rotate(0,69,177)"/><rect x="72" y="174" width="6" height="6" transform="rotate(0,75,177)"/><rect x="78" y="174" width="6" height="6" transform="rotate(0,81,177)"/><circle cx="99" cy="177" r="3" transform="rotate(0,99,177)"/><path d="M 108 174v 6h 6a 6 6, 0, 0, 0, -6 -6" transform="rotate(-90,111,177)"/><path d="M 114 174v 6h 6a 6 6, 0, 0, 0, -6 -6" transform="rotate(0,117,177)"/><rect x="138" y="174" width="6" height="6" transform="rotate(0,141,177)"/><rect x="144" y="174" width="6" height="6" transform="rotate(0,147,177)"/><path d="M 168 174v 6h 6a 6 6, 0, 0, 0, -6 -6" transform="rotate(-90,171,177)"/><rect x="174" y="174" width="6" height="6" transform="rotate(0,177,177)"/><rect x="180" y="174" width="6" height="6" transform="rotate(0,183,177)"/><path d="M 186 174v 6h 6a 6 6, 0, 0, 0, -6 -6" transform="rotate(0,189,177)"/><path d="M 210 174v 6h 3a 3 3, 0, 0, 0, 0 -6" transform="rotate(90,213,177)"/><rect x="228" y="174" width="6" height="6" transform="rotate(0,231,177)"/><path d="M 12 180v 6h 3a 3 3, 0, 0, 0, 0 -6" transform="rotate(90,15,183)"/><circle cx="27" cy="183" r="3" transform="rotate(0,27,183)"/><path d="M 36 180v 6h 6a 6 6, 0, 0, 0, -6 -6" transform="rotate(180,39,183)"/><rect x="42" y="180" width="6" height="6" transform="rotate(0,45,183)"/><rect x="48" y="180" width="6" height="6" transform="rotate(0,51,183)"/><rect x="54" y="180" width="6" height="6" transform="rotate(0,57,183)"/><rect x="60" y="180" width="6" height="6" transform="rotate(0,63,183)"/><path d="M 72 180v 6h 6a 6 6, 0, 0, 0, -6 -6" transform="rotate(180,75,183)"/><rect x="78" y="180" width="6" height="6" transform="rotate(0,81,183)"/><rect x="84" y="180" width="6" height="6" transform="rotate(0,87,183)"/><path d="M 90 180v 6h 3a 3 3, 0, 0, 0, 0 -6" transform="rotate(0,93,183)"/><rect x="108" y="180" width="6" height="6" transform="rotate(0,111,183)"/><path d="M 114 180v 6h 6a 6 6, 0, 0, 0, -6 -6" transform="rotate(90,117,183)"/><path d="M 138 180v 6h 6a 6 6, 0, 0, 0, -6 -6" transform="rotate(180,141,183)"/><path d="M 144 180v 6h 6a 6 6, 0, 0, 0, -6 -6" transform="rotate(90,147,183)"/><path d="M 162 180v 6h 3a 3 3, 0, 0, 0, 0 -6" transform="rotate(180,165,183)"/><rect x="168" y="180" width="6" height="6" transform="rotate(0,171,183)"/><rect x="174" y="180" width="6" height="6" transform="rotate(0,177,183)"/><rect x="180" y="180" width="6" height="6" transform="rotate(0,183,183)"/><rect x="186" y="180" width="6" height="6" transform="rotate(0,189,183)"/><rect x="192" y="180" width="6" height="6" transform="rotate(0,195,183)"/><rect x="198" y="180" width="6" height="6" transform="rotate(0,201,183)"/><path d="M 204 180v 6h 6a 6 6, 0, 0, 0, -6 -6" transform="rotate(0,207,183)"/><circle cx="219" cy="183" r="3" transform="rotate(0,219,183)"/><path d="M 228 180v 6h 3a 3 3, 0, 0, 0, 0 -6" transform="rotate(90,231,183)"/><rect x="60" y="186" width="6" height="6" transform="rotate(0,63,189)"/><path d="M 78 186v 6h 6a 6 6, 0, 0, 0, -6 -6" transform="rotate(180,81,189)"/><path d="M 84 186v 6h 6a 6 6, 0, 0, 0, -6 -6" transform="rotate(90,87,189)"/><path d="M 96 186v 6h 3a 3 3, 0, 0, 0, 0 -6" transform="rotate(-90,99,189)"/><rect x="108" y="186" width="6" height="6" transform="rotate(0,111,189)"/><circle cx="123" cy="189" r="3" transform="rotate(0,123,189)"/><circle cx="153" cy="189" r="3" transform="rotate(0,153,189)"/><path d="M 168 186v 6h 6a 6 6, 0, 0, 0, -6 -6" transform="rotate(180,171,189)"/><rect x="174" y="186" width="6" height="6" transform="rotate(0,177,189)"/><rect x="180" y="186" width="6" height="6" transform="rotate(0,183,189)"/><rect x="204" y="186" width="6" height="6" transform="rotate(0,207,189)"/><path d="M 222 186v 6h 3a 3 3, 0, 0, 0, 0 -6" transform="rotate(-90,225,189)"/><rect x="60" y="192" width="6" height="6" transform="rotate(0,63,195)"/><circle cx="75" cy="195" r="3" transform="rotate(0,75,195)"/><path d="M 90 192v 6h 3a 3 3, 0, 0, 0, 0 -6" transform="rotate(180,93,195)"/><path d="M 96 192v 6h 6a 6 6, 0, 0, 0, -6 -6" transform="rotate(90,99,195)"/><path d="M 108 192v 6h 3a 3 3, 0, 0, 0, 0 -6" transform="rotate(90,111,195)"/><circle cx="129" cy="195" r="3" transform="rotate(0,129,195)"/><circle cx="147" cy="195" r="3" transform="rotate(0,147,195)"/><path d="M 156 192v 6h 6a 6 6, 0, 0, 0, -6 -6" transform="rotate(-90,159,195)"/><path d="M 162 192v 6h 3a 3 3, 0, 0, 0, 0 -6" transform="rotate(0,165,195)"/><rect x="180" y="192" width="6" height="6" transform="rotate(0,183,195)"/><circle cx="195" cy="195" r="3" transform="rotate(0,195,195)"/><rect x="204" y="192" width="6" height="6" transform="rotate(0,207,195)"/><path d="M 210 192v 6h 3a 3 3, 0, 0, 0, 0 -6" transform="rotate(0,213,195)"/><rect x="222" y="192" width="6" height="6" transform="rotate(0,225,195)"/><path d="M 228 192v 6h 6a 6 6, 0, 0, 0, -6 -6" transform="rotate(0,231,195)"/><rect x="60" y="198" width="6" height="6" transform="rotate(0,63,201)"/><path d="M 66 198v 6h 6a 6 6, 0, 0, 0, -6 -6" transform="rotate(0,69,201)"/><path d="M 102 198v 6h 3a 3 3, 0, 0, 0, 0 -6" transform="rotate(-90,105,201)"/><path d="M 114 198v 6h 3a 3 3, 0, 0, 0, 0 -6" transform="rotate(180,117,201)"/><path d="M 120 198v 6h 6a 6 6, 0, 0, 0, -6 -6" transform="rotate(0,123,201)"/><path d="M 156 198v 6h 3a 3 3, 0, 0, 0, 0 -6" transform="rotate(90,159,201)"/><path d="M 174 198v 6h 6a 6 6, 0, 0, 0, -6 -6" transform="rotate(-90,177,201)"/><rect x="180" y="198" width="6" height="6" transform="rotate(0,183,201)"/><rect x="204" y="198" width="6" height="6" transform="rotate(0,207,201)"/><path d="M 222 198v 6h 6a 6 6, 0, 0, 0, -6 -6" transform="rotate(180,225,201)"/><rect x="228" y="198" width="6" height="6" transform="rotate(0,231,201)"/><rect x="60" y="204" width="6" height="6" transform="rotate(0,63,207)"/><rect x="66" y="204" width="6" height="6" transform="rotate(0,69,207)"/><circle cx="87" cy="207" r="3" transform="rotate(0,87,207)"/><path d="M 102 204v 6h 3a 3 3, 0, 0, 0, 0 -6" transform="rotate(90,105,207)"/><rect x="120" y="204" width="6" height="6" transform="rotate(0,123,207)"/><path d="M 132 204v 6h 3a 3 3, 0, 0, 0, 0 -6" transform="rotate(180,135,207)"/><rect x="138" y="204" width="6" height="6" transform="rotate(0,141,207)"/><path d="M 144 204v 6h 3a 3 3, 0, 0, 0, 0 -6" transform="rotate(0,147,207)"/><path d="M 162 204v 6h 3a 3 3, 0, 0, 0, 0 -6" transform="rotate(180,165,207)"/><rect x="168" y="204" width="6" height="6" transform="rotate(0,171,207)"/><rect x="174" y="204" width="6" height="6" transform="rotate(0,177,207)"/><rect x="180" y="204" width="6" height="6" transform="rotate(0,183,207)"/><rect x="186" y="204" width="6" height="6" transform="rotate(0,189,207)"/><rect x="192" y="204" width="6" height="6" transform="rotate(0,195,207)"/><rect x="198" y="204" width="6" height="6" transform="rotate(0,201,207)"/><rect x="204" y="204" width="6" height="6" transform="rotate(0,207,207)"/><path d="M 216 204v 6h 3a 3 3, 0, 0, 0, 0 -6" transform="rotate(-90,219,207)"/><path d="M 228 204v 6h 3a 3 3, 0, 0, 0, 0 -6" transform="rotate(90,231,207)"/><rect x="60" y="210" width="6" height="6" transform="rotate(0,63,213)"/><rect x="66" y="210" width="6" height="6" transform="rotate(0,69,213)"/><circle cx="81" cy="213" r="3" transform="rotate(0,81,213)"/><path d="M 90 210v 6h 3a 3 3, 0, 0, 0, 0 -6" transform="rotate(-90,93,213)"/><rect x="120" y="210" width="6" height="6" transform="rotate(0,123,213)"/><rect x="138" y="210" width="6" height="6" transform="rotate(0,141,213)"/><path d="M 150 210v 6h 3a 3 3, 0, 0, 0, 0 -6" transform="rotate(180,153,213)"/><path d="M 156 210v 6h 6a 6 6, 0, 0, 0, -6 -6" transform="rotate(0,159,213)"/><path d="M 168 210v 6h 6a 6 6, 0, 0, 0, -6 -6" transform="rotate(180,171,213)"/><rect x="174" y="210" width="6" height="6" transform="rotate(0,177,213)"/><path d="M 192 210v 6h 6a 6 6, 0, 0, 0, -6 -6" transform="rotate(180,195,213)"/><rect x="198" y="210" width="6" height="6" transform="rotate(0,201,213)"/><path d="M 204 210v 6h 6a 6 6, 0, 0, 0, -6 -6" transform="rotate(90,207,213)"/><path d="M 216 210v 6h 6a 6 6, 0, 0, 0, -6 -6" transform="rotate(180,219,213)"/><path d="M 222 210v 6h 3a 3 3, 0, 0, 0, 0 -6" transform="rotate(0,225,213)"/><rect x="60" y="216" width="6" height="6" transform="rotate(0,63,219)"/><path d="M 66 216v 6h 6a 6 6, 0, 0, 0, -6 -6" transform="rotate(90,69,219)"/><path d="M 84 216v 6h 3a 3 3, 0, 0, 0, 0 -6" transform="rotate(180,87,219)"/><rect x="90" y="216" width="6" height="6" transform="rotate(0,93,219)"/><path d="M 96 216v 6h 6a 6 6, 0, 0, 0, -6 -6" transform="rotate(0,99,219)"/><rect x="120" y="216" width="6" height="6" transform="rotate(0,123,219)"/><path d="M 132 216v 6h 3a 3 3, 0, 0, 0, 0 -6" transform="rotate(180,135,219)"/><rect x="138" y="216" width="6" height="6" transform="rotate(0,141,219)"/><path d="M 144 216v 6h 3a 3 3, 0, 0, 0, 0 -6" transform="rotate(0,147,219)"/><rect x="156" y="216" width="6" height="6" transform="rotate(0,159,219)"/><path d="M 162 216v 6h 3a 3 3, 0, 0, 0, 0 -6" transform="rotate(0,165,219)"/><rect x="174" y="216" width="6" height="6" transform="rotate(0,177,219)"/><circle cx="189" cy="219" r="3" transform="rotate(0,189,219)"/><circle cx="213" cy="219" r="3" transform="rotate(0,213,219)"/><path d="M 228 216v 6h 3a 3 3, 0, 0, 0, 0 -6" transform="rotate(-90,231,219)"/><path d="M 60 222v 6h 3a 3 3, 0, 0, 0, 0 -6" transform="rotate(90,63,225)"/><path d="M 78 222v 6h 3a 3 3, 0, 0, 0, 0 -6" transform="rotate(-90,81,225)"/><path d="M 90 222v 6h 6a 6 6, 0, 0, 0, -6 -6" transform="rotate(180,93,225)"/><path d="M 96 222v 6h 6a 6 6, 0, 0, 0, -6 -6" transform="rotate(90,99,225)"/><path d="M 108 222v 6h 3a 3 3, 0, 0, 0, 0 -6" transform="rotate(180,111,225)"/><rect x="114" y="222" width="6" height="6" transform="rotate(0,117,225)"/><path d="M 120 222v 6h 6a 6 6, 0, 0, 0, -6 -6" transform="rotate(90,123,225)"/><path d="M 138 222v 6h 3a 3 3, 0, 0, 0, 0 -6" transform="rotate(90,141,225)"/><path d="M 150 222v 6h 3a 3 3, 0, 0, 0, 0 -6" transform="rotate(180,153,225)"/><rect x="156" y="222" width="6" height="6" transform="rotate(0,159,225)"/><path d="M 174 222v 6h 6a 6 6, 0, 0, 0, -6 -6" transform="rotate(180,177,225)"/><path d="M 180 222v 6h 3a 3 3, 0, 0, 0, 0 -6" transform="rotate(0,183,225)"/><circle cx="195" cy="225" r="3" transform="rotate(0,195,225)"/><circle cx="207" cy="225" r="3" transform="rotate(0,207,225)"/><rect x="228" y="222" width="6" height="6" transform="rotate(0,231,225)"/><circle cx="69" cy="231" r="3" transform="rotate(0,69,231)"/><path d="M 78 228v 6h 6a 6 6, 0, 0, 0, -6 -6" transform="rotate(180,81,231)"/><path d="M 84 228v 6h 3a 3 3, 0, 0, 0, 0 -6" transform="rotate(0,87,231)"/><circle cx="105" cy="231" r="3" transform="rotate(0,105,231)"/><path d="M 114 228v 6h 3a 3 3, 0, 0, 0, 0 -6" transform="rotate(90,117,231)"/><path d="M 156 228v 6h 3a 3 3, 0, 0, 0, 0 -6" transform="rotate(90,159,231)"/><circle cx="171" cy="231" r="3" transform="rotate(0,171,231)"/><circle cx="189" cy="231" r="3" transform="rotate(0,189,231)"/><path d="M 210 228v 6h 3a 3 3, 0, 0, 0, 0 -6" transform="rotate(180,213,231)"/><rect x="216" y="228" width="6" height="6" transform="rotate(0,219,231)"/><rect x="222" y="228" width="6" height="6" transform="rotate(0,225,231)"/><path d="M 228 228v 6h 6a 6 6, 0, 0, 0, -6 -6" transform="rotate(90,231,231)"/></g></svg>