<?xml version="1.0" encoding="utf-8"?><!DOCTYPE svg PUBLIC "-//W3C//DTD SVG 1.1//EN" "http://www.w3.org/Graphics/SVG/1.1/DTD/svg11.dtd"><svg xmlns:xlink="http://www.w3.org/1999/xlink" xmlns="http://www.w3.org/2000/svg" id="map" viewBox="0 0 246 246" width="200" height="200" data-dot="6"><rect x="0" y="0" height="246" width="246" fill="#ffffff"/><defs/><g fill="#000000"><circle cx="33" cy="213" r="9" transform="rotate(-90,33,213)"/><path clip-rule="evenodd" class="svgeye" d="M 33 192a 21 21 0 1 0 0.1 0zm 0 6a 15 15 0 1 1 -0.1 0Z" transform="rotate(-90,33,213)"/><circle cx="213" cy="33" r="9" transform="rotate(90,213,33)"/><path clip-rule="evenodd" class="svgeye" d="M 213 12a 21 21 0 1 0 0.1 0zm 0 6a 15 15 0 1 1 -0.1 0Z" transform="rotate(90,213,33)"/><circle cx="33" cy="33" r="9" transform="rotate(0,33,33)"/><path clip-rule="evenodd" class="svgeye" d="M 33 12a 21 21 0 1 0 0.1 0zm 0 6a 15 15 0 1 1 -0.1 0Z" transform="rotate(0,33,33)"/><path d="M 60 12v 6h 6a 6 6, 0, 0, 0, -6 -6" transform="rotate(-90,63,15)"/><path d="M 66 12v 6h 6a 6 6, 0, 0, 0, -6 -6" transform="rotate(0,69,15)"/><circle cx="87" cy="15" r="3" transform="rotate(0,87,15)"/><path d="M 96 12v 6h 6a 6 6, 0, 0, 0, -6 -6" transform="rotate(-90,99,15)"/><path d="M 102 12v 6h 3a 3 3, 0, 0, 0, 0 -6" transform="rotate(0,105,15)"/><path d="M 120 12v 6h 6a 6 6, 0, 0, 0, -6 -6" transform="rotate(-90,123,15)"/><rect x="126" y="12" width="6" height="6" transform="rotate(0,129,15)"/><path d="M 132 12v 6h 6a 6 6, 0, 0, 0, -6 -6" transform="rotate(0,135,15)"/><path d="M 150 12v 6h 3a 3 3, 0, 0, 0, 0 -6" transform="rotate(180,153,15)"/><rect x="156" y="12" width="6" height="6" transform="rotate(0,159,15)"/><rect x="162" y="12" width="6" height="6" transform="rotate(0,165,15)"/><path d="M 168 12v 6h 6a 6 6, 0, 0, 0, -6 -6" transform="rotate(0,171,15)"/><path d="M 60 18v 6h 6a 6 6, 0, 0, 0, -6 -6" transform="rotate(180,63,21)"/><rect x="66" y="18" width="6" height="6" transform="rotate(0,69,21)"/><path d="M 72 18v 6h 3a 3 3, 0, 0, 0, 0 -6" transform="rotate(0,75,21)"/><path d="M 90 18v 6h 3a 3 3, 0, 0, 0, 0 -6" transform="rotate(180,93,21)"/><rect x="96" y="18" width="6" height="6" transform="rotate(0,99,21)"/><path d="M 114 18v 6h 3a 3 3, 0, 0, 0, 0 -6" transform="rotate(180,117,21)"/><rect x="120" y="18" width="6" height="6" transform="rotate(0,123,21)"/><path d="M 132 18v 6h 3a 3 3, 0, 0, 0, 0 -6" transform="rotate(90,135,21)"/><rect x="168" y="18" width="6" height="6" transform="rotate(0,171,21)"/><path d="M 180 18v 6h 3a 3 3, 0, 0, 0, 0 -6" transform="rotate(-90,183,21)"/><rect x="66" y="24" width="6" height="6" transform="rotate(0,69,27)"/><rect x="96" y="24" width="6" height="6" transform="rotate(0,99,27)"/><path d="M 102 24v 6h 3a 3 3, 0, 0, 0, 0 -6" transform="rotate(0,105,27)"/><rect x="120" y="24" width="6" height="6" transform="rotate(0,123,27)"/><path d="M 138 24v 6h 6a 6 6, 0, 0, 0, -6 -6" transform="rotate(-90,141,27)"/><path d="M 144 24v 6h 6a 6 6, 0, 0, 0, -6 -6" transform="rotate(0,147,27)"/><path d="M 156 24v 6h 3a 3 3, 0, 0, 0, 0 -6" transform="rotate(-90,159,27)"/><path d="M 168 24v 6h 3a 3 3, 0, 0, 0, 0 -6" transform="rotate(90,171,27)"/><rect x="180" y="24" width="6" height="6" transform="rotate(0,183,27)"/><path d="M 66 30v 6h 6a 6 6, 0, 0, 0, -6 -6" transform="rotate(180,69,33)"/><rect x="72" y="30" width="6" height="6" transform="rotate(0,75,33)"/><rect x="78" y="30" width="6" height="6" transform="rotate(0,81,33)"/><rect x="84" y="30" width="6" height="6" transform="rotate(0,87,33)"/><rect x="90" y="30" width="6" height="6" transform="rotate(0,93,33)"/><path d="M 96 30v 6h 6a 6 6, 0, 0, 0, -6 -6" transform="rotate(90,99,33)"/><circle cx="111" cy="33" r="3" transform="rotate(0,111,33)"/><path d="M 120 30v 6h 3a 3 3, 0, 0, 0, 0 -6" transform="rotate(90,123,33)"/><path d="M 138 30v 6h 6a 6 6, 0, 0, 0, -6 -6" transform="rotate(180,141,33)"/><path d="M 144 30v 6h 6a 6 6, 0, 0, 0, -6 -6" transform="rotate(90,147,33)"/><rect x="156" y="30" width="6" height="6" transform="rotate(0,159,33)"/><path d="M 162 30v 6h 3a 3 3, 0, 0, 0, 0 -6" transform="rotate(0,165,33)"/><path d="M 174 30v 6h 3a 3 3, 0, 0, 0, 0 -6" transform="rotate(180,177,33)"/><path d="M 180 30v 6h 6a 6 6, 0, 0, 0, -6 -6" transform="rotate(90,183,33)"/><rect x="78" y="36" width="6" height="6" transform="rotate(0,81,39)"/><rect x="84" y="36" width="6" height="6" transform="rotate(0,87,39)"/><path d="M 90 36v 6h 6a 6 6, 0, 0, 0, -6 -6" transform="rotate(90,93,39)"/><circle cx="105" cy="39" r="3" transform="rotate(0,105,39)"/><path d="M 126 36v 6h 3a 3 3, 0, 0, 0, 0 -6" transform="rotate(-90,129,39)"/><path d="M 150 36v 6h 3a 3 3, 0, 0, 0, 0 -6" transform="rotate(180,153,39)"/><rect x="156" y="36" width="6" height="6" transform="rotate(0,159,39)"/><circle cx="171" cy="39" r="3" transform="rotate(0,171,39)"/><circle cx="69" cy="45" r="3" transform="rotate(0,69,45)"/><path d="M 78 42v 6h 6a 6 6, 0, 0, 0, -6 -6" transform="rotate(180,81,45)"/><rect x="84" y="42" width="6" height="6" transform="rotate(0,87,45)"/><path d="M 108 42v 6h 6a 6 6, 0, 0, 0, -6 -6" transform="rotate(-90,111,45)"/><rect x="114" y="42" width="6" height="6" transform="rotate(0,117,45)"/><rect x="120" y="42" width="6" height="6" transform="rotate(0,123,45)"/><path d="M 126 42v 6h 6a 6 6, 0, 0, 0, -6 -6" transform="rotate(90,129,45)"/><path d="M 138 42v 6h 3a 3 3, 0, 0, 0, 0 -6" transform="rotate(180,141,45)"/><path d="M 144 42v 6h 6a 6 6, 0, 0, 0, -6 -6" transform="rotate(0,147,45)"/><rect x="156" y="42" width="6" height="6" transform="rotate(0,159,45)"/><path d="M 180 42v 6h 3a 3 3, 0, 0, 0, 0 -6" transform="rotate(-90,183,45)"/><circle cx="63" cy="51" r="3" transform="rotate(0,63,51)"/><circle cx="75" cy="51" r="3" transform="rotate(0,75,51)"/><path d="M 84 48v 6h 3a 3 3, 0, 0, 0, 0 -6" transform="rotate(90,87,51)"/><circle cx="99" cy="51" r="3" transform="rotate(0,99,51)"/><rect x="108" y="48" width="6" height="6" transform="rotate(0,111,51)"/><path d="M 120 48v 6h 3a 3 3, 0, 0, 0, 0 -6" transform="rotate(90,123,51)"/><circle cx="135" cy="51" r="3" transform="rotate(0,135,51)"/><rect x="144" y="48" width="6" height="6" transform="rotate(0,147,51)"/><path d="M 156 48v 6h 3a 3 3, 0, 0, 0, 0 -6" transform="rotate(90,159,51)"/><path d="M 168 48v 6h 3a 3 3, 0, 0, 0, 0 -6" transform="rotate(-90,171,51)"/><rect x="180" y="48" width="6" height="6" transform="rotate(0,183,51)"/><circle cx="69" cy="57" r="3" transform="rotate(0,69,57)"/><circle cx="81" cy="57" r="3" transform="rotate(0,81,57)"/><path d="M 90 54v 6h 3a 3 3, 0, 0, 0, 0 -6" transform="rotate(-90,93,57)"/><path d="M 102 54v 6h 3a 3 3, 0, 0, 0, 0 -6" transform="rotate(180,105,57)"/><path d="M 108 54v 6h 6a 6 6, 0, 0, 0, -6 -6" transform="rotate(90,111,57)"/><path d="M 126 54v 6h 3a 3 3, 0, 0, 0, 0 -6" transform="rotate(-90,129,57)"/><rect x="144" y="54" width="6" height="6" transform="rotate(0,147,57)"/><path d="M 150 54v 6h 6a 6 6, 0, 0, 0, -6 -6" transform="rotate(0,153,57)"/><path d="M 168 54v 6h 6a 6 6, 0, 0, 0, -6 -6" transform="rotate(180,171,57)"/><rect x="174" y="54" width="6" height="6" transform="rotate(0,177,57)"/><path d="M 180 54v 6h 6a 6 6, 0, 0, 0, -6 -6" transform="rotate(90,183,57)"/><path d="M 18 60v 6h 3a 3 3, 0, 0, 0, 0 -6" transform="rotate(-90,21,63)"/><path d="M 48 60v 6h 3a 3 3, 0, 0, 0, 0 -6" transform="rotate(180,51,63)"/><rect x="54" y="60" width="6" height="6" transform="rotate(0,57,63)"/><path d="M 60 60v 6h 6a 6 6, 0, 0, 0, -6 -6" transform="rotate(0,63,63)"/><circle cx="75" cy="63" r="3" transform="rotate(0,75,63)"/><path d="M 84 60v 6h 3a 3 3, 0, 0, 0, 0 -6" transform="rotate(180,87,63)"/><rect x="90" y="60" width="6" height="6" transform="rotate(0,93,63)"/><path d="M 96 60v 6h 3a 3 3, 0, 0, 0, 0 -6" transform="rotate(0,99,63)"/><path d="M 120 60v 6h 3a 3 3, 0, 0, 0, 0 -6" transform="rotate(180,123,63)"/><rect x="126" y="60" width="6" height="6" transform="rotate(0,129,63)"/><path d="M 144 60v 6h 6a 6 6, 0, 0, 0, -6 -6" transform="rotate(180,147,63)"/><rect x="150" y="60" width="6" height="6" transform="rotate(0,153,63)"/><path d="M 156 60v 6h 3a 3 3, 0, 0, 0, 0 -6" transform="rotate(0,159,63)"/><path d="M 186 60v 6h 3a 3 3, 0, 0, 0, 0 -6" transform="rotate(-90,189,63)"/><path d="M 222 60v 6h 3a 3 3, 0, 0, 0, 0 -6" transform="rotate(180,225,63)"/><path d="M 228 60v 6h 3a 3 3, 0, 0, 0, 0 -6" transform="rotate(0,231,63)"/><rect x="18" y="66" width="6" height="6" transform="rotate(0,21,69)"/><path d="M 36 66v 6h 6a 6 6, 0, 0, 0, -6 -6" transform="rotate(-90,39,69)"/><path d="M 42 66v 6h 3a 3 3, 0, 0, 0, 0 -6" transform="rotate(0,45,69)"/><path d="M 54 66v 6h 6a 6 6, 0, 0, 0, -6 -6" transform="rotate(180,57,69)"/><rect x="60" y="66" width="6" height="6" transform="rotate(0,63,69)"/><path d="M 66 66v 6h 3a 3 3, 0, 0, 0, 0 -6" transform="rotate(0,69,69)"/><circle cx="111" cy="69" r="3" transform="rotate(0,111,69)"/><rect x="126" y="66" width="6" height="6" transform="rotate(0,129,69)"/><rect x="132" y="66" width="6" height="6" transform="rotate(0,135,69)"/><path d="M 138 66v 6h 3a 3 3, 0, 0, 0, 0 -6" transform="rotate(0,141,69)"/><path d="M 150 66v 6h 3a 3 3, 0, 0, 0, 0 -6" transform="rotate(90,153,69)"/><path d="M 162 66v 6h 3a 3 3, 0, 0, 0, 0 -6" transform="rotate(-90,165,69)"/><path d="M 186 66v 6h 3a 3 3, 0, 0, 0, 0 -6" transform="rotate(90,189,69)"/><path d="M 198 66v 6h 6a 6 6, 0, 0, 0, -6 -6" transform="rotate(-90,201,69)"/><path d="M 204 66v 6h 3a 3 3, 0, 0, 0, 0 -6" transform="rotate(0,207,69)"/><path d="M 216 66v 6h 3a 3 3, 0, 0, 0, 0 -6" transform="rotate(-90,219,69)"/><path d="M 12 72v 6h 6a 6 6, 0, 0, 0, -6 -6" transform="rotate(-90,15,75)"/><path d="M 18 72v 6h 6a 6 6, 0, 0, 0, -6 -6" transform="rotate(90,21,75)"/><rect x="36" y="72" width="6" height="6" transform="rotate(0,39,75)"/><circle cx="51" cy="75" r="3" transform="rotate(0,51,75)"/><path d="M 78 72v 6h 3a 3 3, 0, 0, 0, 0 -6" transform="rotate(-90,81,75)"/><path d="M 90 72v 6h 3a 3 3, 0, 0, 0, 0 -6" transform="rotate(-90,93,75)"/><path d="M 120 72v 6h 6a 6 6, 0, 0, 0, -6 -6" transform="rotate(-90,123,75)"/><path d="M 126 72v 6h 6a 6 6, 0, 0, 0, -6 -6" transform="rotate(90,129,75)"/><circle cx="147" cy="75" r="3" transform="rotate(0,147,75)"/><path d="M 156 72v 6h 3a 3 3, 0, 0, 0, 0 -6" transform="rotate(180,159,75)"/><rect x="162" y="72" width="6" height="6" transform="rotate(0,165,75)"/><path d="M 168 72v 6h 6a 6 6, 0, 0, 0, -6 -6" transform="rotate(0,171,75)"/><path d="M 192 72v 6h 6a 6 6, 0, 0, 0, -6 -6" transform="rotate(-90,195,75)"/><rect x="198" y="72" width="6" height="6" transform="rotate(0,201,75)"/><path d="M 216 72v 6h 6a 6 6, 0, 0, 0, -6 -6" transform="rotate(180,219,75)"/><rect x="222" y="72" width="6" height="6" transform="rotate(0,225,75)"/><path d="M 228 72v 6h 3a 3 3, 0, 0, 0, 0 -6" transform="rotate(0,231,75)"/><path d="M 12 78v 6h 3a 3 3, 0, 0, 0, 0 -6" transform="rotate(90,15,81)"/><path d="M 30 78v 6h 6a 6 6, 0, 0, 0, -6 -6" transform="rotate(-90,33,81)"/><path d="M 36 78v 6h 6a 6 6, 0, 0, 0, -6 -6" transform="rotate(90,39,81)"/><path d="M 60 78v 6h 3a 3 3, 0, 0, 0, 0 -6" transform="rotate(180,63,81)"/><rect x="66" y="78" width="6" height="6" transform="rotate(0,69,81)"/><rect x="72" y="78" width="6" height="6" transform="rotate(0,75,81)"/><rect x="78" y="78" width="6" height="6" transform="rotate(0,81,81)"/><rect x="84" y="78" width="6" height="6" transform="rotate(0,87,81)"/><rect x="90" y="78" width="6" height="6" transform="rotate(0,93,81)"/><path d="M 96 78v 6h 3a 3 3, 0, 0, 0, 0 -6" transform="rotate(0,99,81)"/><path d="M 108 78v 6h 3a 3 3, 0, 0, 0, 0 -6" transform="rotate(180,111,81)"/><rect x="114" y="78" width="6" height="6" transform="rotate(0,117,81)"/><path d="M 120 78v 6h 6a 6 6, 0, 0, 0, -6 -6" transform="rotate(90,123,81)"/><circle cx="135" cy="81" r="3" transform="rotate(0,135,81)"/><path d="M 168 78v 6h 6a 6 6, 0, 0, 0, -6 -6" transform="rotate(180,171,81)"/><rect x="174" y="78" width="6" height="6" transform="rotate(0,177,81)"/><path d="M 180 78v 6h 6a 6 6, 0, 0, 0, -6 -6" transform="rotate(0,183,81)"/><rect x="192" y="78" width="6" height="6" transform="rotate(0,195,81)"/><path d="M 198 78v 6h 6a 6 6, 0, 0, 0, -6 -6" transform="rotate(90,201,81)"/><circle cx="213" cy="81" r="3" transform="rotate(0,213,81)"/><path d="M 222 78v 6h 3a 3 3, 0, 0, 0, 0 -6" transform="rotate(90,225,81)"/><path d="M 18 84v 6h 6a 6 6, 0, 0, 0, -6 -6" transform="rotate(-90,21,87)"/><rect x="24" y="84" width="6" height="6" transform="rotate(0,27,87)"/><rect x="30" y="84" width="6" height="6" transform="rotate(0,33,87)"/><circle cx="51" cy="87" r="3" transform="rotate(0,51,87)"/><path d="M 72 84v 6h 3a 3 3, 0, 0, 0, 0 -6" transform="rotate(90,75,87)"/><rect x="84" y="84" width="6" height="6" transform="rotate(0,87,87)"/><rect x="90" y="84" width="6" height="6" transform="rotate(0,93,87)"/><circle cx="105" cy="87" r="3" transform="rotate(0,105,87)"/><path d="M 150 84v 6h 3a 3 3, 0, 0, 0, 0 -6" transform="rotate(-90,153,87)"/><rect x="180" y="84" width="6" height="6" transform="rotate(0,183,87)"/><path d="M 192 84v 6h 3a 3 3, 0, 0, 0, 0 -6" transform="rotate(90,195,87)"/><path d="M 12 90v 6h 6a 6 6, 0, 0, 0, -6 -6" transform="rotate(-90,15,93)"/><rect x="18" y="90" width="6" height="6" transform="rotate(0,21,93)"/><rect x="24" y="90" width="6" height="6" transform="rotate(0,27,93)"/><path d="M 30 90v 6h 6a 6 6, 0, 0, 0, -6 -6" transform="rotate(90,33,93)"/><path d="M 60 90v 6h 6a 6 6, 0, 0, 0, -6 -6" transform="rotate(-90,63,93)"/><path d="M 66 90v 6h 3a 3 3, 0, 0, 0, 0 -6" transform="rotate(0,69,93)"/><path d="M 84 90v 6h 6a 6 6, 0, 0, 0, -6 -6" transform="rotate(180,87,93)"/><path d="M 90 90v 6h 6a 6 6, 0, 0, 0, -6 -6" transform="rotate(90,93,93)"/><circle cx="123" cy="93" r="3" transform="rotate(0,123,93)"/><path d="M 132 90v 6h 6a 6 6, 0, 0, 0, -6 -6" transform="rotate(-90,135,93)"/><rect x="138" y="90" width="6" height="6" transform="rotate(0,141,93)"/><rect x="144" y="90" width="6" height="6" transform="rotate(0,147,93)"/><path d="M 150 90v 6h 6a 6 6, 0, 0, 0, -6 -6" transform="rotate(90,153,93)"/><path d="M 162 90v 6h 3a 3 3, 0, 0, 0, 0 -6" transform="rotate(180,165,93)"/><rect x="168" y="90" width="6" height="6" transform="rotate(0,171,93)"/><rect x="174" y="90" width="6" height="6" transform="rotate(0,177,93)"/><rect x="180" y="90" width="6" height="6" transform="rotate(0,183,93)"/><path d="M 186 90v 6h 6a 6 6, 0, 0, 0, -6 -6" transform="rotate(0,189,93)"/><circle cx="201" cy="93" r="3" transform="rotate(0,201,93)"/><circle cx="219" cy="93" r="3" transform="rotate(0,219,93)"/><rect x="12" y="96" width="6" height="6" transform="rotate(0,15,99)"/><rect x="18" y="96" width="6" height="6" transform="rotate(0,21,99)"/><path d="M 24 96v 6h 6a 6 6, 0, 0, 0, -6 -6" transform="rotate(90,27,99)"/><path d="M 48 96v 6h 3a 3 3, 0, 0, 0, 0 -6" transform="rotate(180,51,99)"/><rect x="54" y="96" width="6" height="6" transform="rotate(0,57,99)"/><path d="M 60 96v 6h 6a 6 6, 0, 0, 0, -6 -6" transform="rotate(90,63,99)"/><circle cx="81" cy="99" r="3" transform="rotate(0,81,99)"/><path d="M 96 96v 6h 3a 3 3, 0, 0, 0, 0 -6" transform="rotate(-90,99,99)"/><circle cx="117" cy="99" r="3" transform="rotate(0,117,99)"/><rect x="132" y="96" width="6" height="6" transform="rotate(0,135,99)"/><rect x="144" y="96" width="6" height="6" transform="rotate(0,147,99)"/><path d="M 168 96v 6h 6a 6 6, 0, 0, 0, -6 -6" transform="rotate(180,171,99)"/><path d="M 174 96v 6h 6a 6 6, 0, 0, 0, -6 -6" transform="rotate(90,177,99)"/><rect x="186" y="96" width="6" height="6" transform="rotate(0,189,99)"/><path d="M 192 96v 6h 6a 6 6, 0, 0, 0, -6 -6" transform="rotate(0,195,99)"/><path d="M 210 96v 6h 3a 3 3, 0, 0, 0, 0 -6" transform="rotate(-90,213,99)"/><path d="M 222 96v 6h 6a 6 6, 0, 0, 0, -6 -6" transform="rotate(-90,225,99)"/><path d="M 228 96v 6h 3a 3 3, 0, 0, 0, 0 -6" transform="rotate(0,231,99)"/><path d="M 12 102v 6h 6a 6 6, 0, 0, 0, -6 -6" transform="rotate(180,15,105)"/><path d="M 18 102v 6h 6a 6 6, 0, 0, 0, -6 -6" transform="rotate(90,21,105)"/><path d="M 36 102v 6h 6a 6 6, 0, 0, 0, -6 -6" transform="rotate(-90,39,105)"/><path d="M 42 102v 6h 6a 6 6, 0, 0, 0, -6 -6" transform="rotate(0,45,105)"/><rect x="54" y="102" width="6" height="6" transform="rotate(0,57,105)"/><path d="M 72 102v 6h 3a 3 3, 0, 0, 0, 0 -6" transform="rotate(-90,75,105)"/><path d="M 90 102v 6h 6a 6 6, 0, 0, 0, -6 -6" transform="rotate(-90,93,105)"/><rect x="96" y="102" width="6" height="6" transform="rotate(0,99,105)"/><circle cx="111" cy="105" r="3" transform="rotate(0,111,105)"/><path d="M 126 102v 6h 6a 6 6, 0, 0, 0, -6 -6" transform="rotate(-90,129,105)"/><rect x="132" y="102" width="6" height="6" transform="rotate(0,135,105)"/><rect x="138" y="102" width="6" height="6" transform="rotate(0,141,105)"/><rect x="144" y="102" width="6" height="6" transform="rotate(0,147,105)"/><path d="M 156 102v 6h 3a 3 3, 0, 0, 0, 0 -6" transform="rotate(-90,159,105)"/><path d="M 186 102v 6h 6a 6 6, 0, 0, 0, -6 -6" transform="rotate(180,189,105)"/><rect x="192" y="102" width="6" height="6" transform="rotate(0,195,105)"/><path d="M 204 102v 6h 6a 6 6, 0, 0, 0, -6 -6" transform="rotate(-90,207,105)"/><rect x="210" y="102" width="6" height="6" transform="rotate(0,213,105)"/><rect x="216" y="102" width="6" height="6" transform="rotate(0,219,105)"/><rect x="222" y="102" width="6" height="6" transform="rotate(0,225,105)"/><path d="M 30 108v 6h 6a 6 6, 0, 0, 0, -6 -6" transform="rotate(-90,33,111)"/><rect x="36" y="108" width="6" height="6" transform="rotate(0,39,111)"/><rect x="42" y="108" width="6" height="6" transform="rotate(0,45,111)"/><rect x="48" y="108" width="6" height="6" transform="rotate(0,51,111)"/><rect x="54" y="108" width="6" height="6" transform="rotate(0,57,111)"/><rect x="60" y="108" width="6" height="6" transform="rotate(0,63,111)"/><rect x="66" y="108" width="6" height="6" transform="rotate(0,69,111)"/><rect x="72" y="108" width="6" height="6" transform="rotate(0,75,111)"/><rect x="78" y="108" width="6" height="6" transform="rotate(0,81,111)"/><rect x="84" y="108" width="6" height="6" transform="rotate(0,87,111)"/><rect x="90" y="108" width="6" height="6" transform="rotate(0,93,111)"/><rect x="96" y="108" width="6" height="6" transform="rotate(0,99,111)"/><path d="M 102 108v 6h 3a 3 3, 0, 0, 0, 0 -6" transform="rotate(0,105,111)"/><path d="M 120 108v 6h 3a 3 3, 0, 0, 0, 0 -6" transform="rotate(180,123,111)"/><rect x="126" y="108" width="6" height="6" transform="rotate(0,129,111)"/><rect x="132" y="108" width="6" height="6" transform="rotate(0,135,111)"/><rect x="138" y="108" width="6" height="6" transform="rotate(0,141,111)"/><path d="M 144 108v 6h 6a 6 6, 0, 0, 0, -6 -6" transform="rotate(90,147,111)"/><path d="M 156 108v 6h 6a 6 6, 0, 0, 0, -6 -6" transform="rotate(180,159,111)"/><path d="M 162 108v 6h 3a 3 3, 0, 0, 0, 0 -6" transform="rotate(0,165,111)"/><path d="M 174 108v 6h 3a 3 3, 0, 0, 0, 0 -6" transform="rotate(-90,177,111)"/><path d="M 192 108v 6h 3a 3 3, 0, 0, 0, 0 -6" transform="rotate(90,195,111)"/><path d="M 204 108v 6h 3a 3 3, 0, 0, 0, 0 -6" transform="rotate(90,207,111)"/><rect x="216" y="108" width="6" height="6" transform="rotate(0,219,111)"/><path d="M 222 108v 6h 6a 6 6, 0, 0, 0, -6 -6" transform="rotate(90,225,111)"/><path d="M 12 114v 6h 3a 3 3, 0, 0, 0, 0 -6" transform="rotate(-90,15,117)"/><path d="M 24 114v 6h 6a 6 6, 0, 0, 0, -6 -6" transform="rotate(-90,27,117)"/><rect x="30" y="114" width="6" height="6" transform="rotate(0,33,117)"/><rect x="36" y="114" width="6" height="6" transform="rotate(0,39,117)"/><rect x="42" y="114" width="6" height="6" transform="rotate(0,45,117)"/><rect x="54" y="114" width="6" height="6" transform="rotate(0,57,117)"/><rect x="60" y="114" width="6" height="6" transform="rotate(0,63,117)"/><path d="M 72 114v 6h 3a 3 3, 0, 0, 0, 0 -6" transform="rotate(90,75,117)"/><path d="M 90 114v 6h 3a 3 3, 0, 0, 0, 0 -6" transform="rotate(90,93,117)"/><path d="M 108 114v 6h 6a 6 6, 0, 0, 0, -6 -6" transform="rotate(-90,111,117)"/><path d="M 114 114v 6h 6a 6 6, 0, 0, 0, -6 -6" transform="rotate(0,117,117)"/><path d="M 138 114v 6h 3a 3 3, 0, 0, 0, 0 -6" transform="rotate(90,141,117)"/><rect x="174" y="114" width="6" height="6" transform="rotate(0,177,117)"/><path d="M 180 114v 6h 3a 3 3, 0, 0, 0, 0 -6" transform="rotate(0,183,117)"/><path d="M 198 114v 6h 3a 3 3, 0, 0, 0, 0 -6" transform="rotate(-90,201,117)"/><path d="M 210 114v 6h 3a 3 3, 0, 0, 0, 0 -6" transform="rotate(180,213,117)"/><path d="M 216 114v 6h 6a 6 6, 0, 0, 0, -6 -6" transform="rotate(90,219,117)"/><path d="M 12 120v 6h 3a 3 3, 0, 0, 0, 0 -6" transform="rotate(90,15,123)"/><path d="M 24 120v 6h 6a 6 6, 0, 0, 0, -6 -6" transform="rotate(180,27,123)"/><rect x="30" y="120" width="6" height="6" transform="rotate(0,33,123)"/><rect x="36" y="120" width="6" height="6" transform="rotate(0,39,123)"/><rect x="42" y="120" width="6" height="6" transform="rotate(0,45,123)"/><rect x="48" y="120" width="6" height="6" transform="rotate(0,51,123)"/><rect x="54" y="120" width="6" height="6" transform="rotate(0,57,123)"/><rect x="60" y="120" width="6" height="6" transform="rotate(0,63,123)"/><path d="M 78 120v 6h 3a 3 3, 0, 0, 0, 0 -6" transform="rotate(-90,81,123)"/><rect x="108" y="120" width="6" height="6" transform="rotate(0,111,123)"/><rect x="114" y="120" width="6" height="6" transform="rotate(0,117,123)"/><rect x="120" y="120" width="6" height="6" transform="rotate(0,123,123)"/><path d="M 126 120v 6h 6a 6 6, 0, 0, 0, -6 -6" transform="rotate(0,129,123)"/><path d="M 156 120v 6h 3a 3 3, 0, 0, 0, 0 -6" transform="rotate(180,159,123)"/><path d="M 162 120v 6h 3a 3 3, 0, 0, 0, 0 -6" transform="rotate(0,165,123)"/><rect x="174" y="120" width="6" height="6" transform="rotate(0,177,123)"/><path d="M 186 120v 6h 6a 6 6, 0, 0, 0, -6 -6" transform="rotate(-90,189,123)"/><rect x="192" y="120" width="6" height="6" transform="rotate(0,195,123)"/><rect x="198" y="120" width="6" height="6" transform="rotate(0,201,123)"/><path d="M 204 120v 6h 6a 6 6, 0, 0, 0, -6 -6" transform="rotate(0,207,123)"/><circle cx="231" cy="123" r="3" transform="rotate(0,231,123)"/><rect x="30" y="126" width="6" height="6" transform="rotate(0,33,129)"/><rect x="42" y="126" width="6" height="6" transform="rotate(0,45,129)"/><path d="M 54 126v 6h 6a 6 6, 0, 0, 0, -6 -6" transform="rotate(180,57,129)"/><rect x="60" y="126" width="6" height="6" transform="rotate(0,63,129)"/><path d="M 72 126v 6h 6a 6 6, 0, 0, 0, -6 -6" transform="rotate(-90,75,129)"/><rect x="78" y="126" width="6" height="6" transform="rotate(0,81,129)"/><path d="M 84 126v 6h 3a 3 3, 0, 0, 0, 0 -6" transform="rotate(0,87,129)"/><circle cx="99" cy="129" r="3" transform="rotate(0,99,129)"/><rect x="108" y="126" width="6" height="6" transform="rotate(0,111,129)"/><rect x="114" y="126" width="6" height="6" transform="rotate(0,117,129)"/><rect x="120" y="126" width="6" height="6" transform="rotate(0,123,129)"/><path d="M 126 126v 6h 6a 6 6, 0, 0, 0, -6 -6" transform="rotate(90,129,129)"/><path d="M 150 126v 6h 3a 3 3, 0, 0, 0, 0 -6" transform="rotate(-90,153,129)"/><rect x="174" y="126" width="6" height="6" transform="rotate(0,177,129)"/><path d="M 186 126v 6h 3a 3 3, 0, 0, 0, 0 -6" transform="rotate(90,189,129)"/><rect x="198" y="126" width="6" height="6" transform="rotate(0,201,129)"/><rect x="204" y="126" width="6" height="6" transform="rotate(0,207,129)"/><path d="M 210 126v 6h 6a 6 6, 0, 0, 0, -6 -6" transform="rotate(0,213,129)"/><circle cx="225" cy="129" r="3" transform="rotate(0,225,129)"/><path d="M 12 132v 6h 3a 3 3, 0, 0, 0, 0 -6" transform="rotate(-90,15,135)"/><path d="M 30 132v 6h 3a 3 3, 0, 0, 0, 0 -6" transform="rotate(90,33,135)"/><rect x="42" y="132" width="6" height="6" transform="rotate(0,45,135)"/><path d="M 48 132v 6h 3a 3 3, 0, 0, 0, 0 -6" transform="rotate(0,51,135)"/><rect x="60" y="132" width="6" height="6" transform="rotate(0,63,135)"/><path d="M 72 132v 6h 6a 6 6, 0, 0, 0, -6 -6" transform="rotate(180,75,135)"/><rect x="78" y="132" width="6" height="6" transform="rotate(0,81,135)"/><path d="M 90 132v 6h 3a 3 3, 0, 0, 0, 0 -6" transform="rotate(-90,93,135)"/><rect x="108" y="132" width="6" height="6" transform="rotate(0,111,135)"/><rect x="120" y="132" width="6" height="6" transform="rotate(0,123,135)"/><path d="M 144 132v 6h 6a 6 6, 0, 0, 0, -6 -6" transform="rotate(-90,147,135)"/><rect x="150" y="132" width="6" height="6" transform="rotate(0,153,135)"/><rect x="156" y="132" width="6" height="6" transform="rotate(0,159,135)"/><path d="M 162 132v 6h 6a 6 6, 0, 0, 0, -6 -6" transform="rotate(0,165,135)"/><rect x="174" y="132" width="6" height="6" transform="rotate(0,177,135)"/><path d="M 192 132v 6h 3a 3 3, 0, 0, 0, 0 -6" transform="rotate(180,195,135)"/><rect x="198" y="132" width="6" height="6" transform="rotate(0,201,135)"/><rect x="204" y="132" width="6" height="6" transform="rotate(0,207,135)"/><rect x="210" y="132" width="6" height="6" transform="rotate(0,213,135)"/><path d="M 216 132v 6h 6a 6 6, 0, 0, 0, -6 -6" transform="rotate(0,219,135)"/><circle cx="231" cy="135" r="3" transform="rotate(0,231,135)"/><path d="M 12 138v 6h 6a 6 6, 0, 0, 0, -6 -6" transform="rotate(180,15,141)"/><path d="M 18 138v 6h 6a 6 6, 0, 0, 0, -6 -6" transform="rotate(0,21,141)"/><path d="M 36 138v 6h 6a 6 6, 0, 0, 0, -6 -6" transform="rotate(-90,39,141)"/><path d="M 42 138v 6h 6a 6 6, 0, 0, 0, -6 -6" transform="rotate(90,45,141)"/><rect x="60" y="138" width="6" height="6" transform="rotate(0,63,141)"/><rect x="78" y="138" width="6" height="6" transform="rotate(0,81,141)"/><rect x="84" y="138" width="6" height="6" transform="rotate(0,87,141)"/><rect x="90" y="138" width="6" height="6" transform="rotate(0,93,141)"/><path d="M 102 138v 6h 3a 3 3, 0, 0, 0, 0 -6" transform="rotate(180,105,141)"/><rect x="108" y="138" width="6" height="6" transform="rotate(0,111,141)"/><rect x="114" y="138" width="6" height="6" transform="rotate(0,117,141)"/><rect x="120" y="138" width="6" height="6" transform="rotate(0,123,141)"/><path d="M 132 138v 6h 3a 3 3, 0, 0, 0, 0 -6" transform="rotate(-90,135,141)"/><path d="M 144 138v 6h 6a 6 6, 0, 0, 0, -6 -6" transform="rotate(180,147,141)"/><rect x="150" y="138" width="6" height="6" transform="rotate(0,153,141)"/><rect x="156" y="138" width="6" height="6" transform="rotate(0,159,141)"/><rect x="162" y="138" width="6" height="6" transform="rotate(0,165,141)"/><rect x="168" y="138" width="6" height="6" transform="rotate(0,171,141)"/><rect x="174" y="138" width="6" height="6" transform="rotate(0,177,141)"/><path d="M 180 138v 6h 3a 3 3, 0, 0, 0, 0 -6" transform="rotate(0,183,141)"/><path d="M 198 138v 6h 6a 6 6, 0, 0, 0, -6 -6" transform="rotate(180,201,141)"/><path d="M 204 138v 6h 6a 6 6, 0, 0, 0, -6 -6" transform="rotate(90,207,141)"/><path d="M 216 138v 6h 6a 6 6, 0, 0, 0, -6 -6" transform="rotate(180,219,141)"/><path d="M 222 138v 6h 6a 6 6, 0, 0, 0, -6 -6" transform="rotate(0,225,141)"/><path d="M 18 144v 6h 3a 3 3, 0, 0, 0, 0 -6" transform="rotate(90,21,147)"/><path d="M 30 144v 6h 3a 3 3, 0, 0, 0, 0 -6" transform="rotate(180,33,147)"/><rect x="36" y="144" width="6" height="6" transform="rotate(0,39,147)"/><circle cx="51" cy="147" r="3" transform="rotate(0,51,147)"/><rect x="60" y="144" width="6" height="6" transform="rotate(0,63,147)"/><path d="M 72 144v 6h 3a 3 3, 0, 0, 0, 0 -6" transform="rotate(180,75,147)"/><rect x="78" y="144" width="6" height="6" transform="rotate(0,81,147)"/><rect x="84" y="144" width="6" height="6" transform="rotate(0,87,147)"/><rect x="90" y="144" width="6" height="6" transform="rotate(0,93,147)"/><path d="M 96 144v 6h 6a 6 6, 0, 0, 0, -6 -6" transform="rotate(0,99,147)"/><path d="M 108 144v 6h 6a 6 6, 0, 0, 0, -6 -6" transform="rotate(180,111,147)"/><rect x="114" y="144" width="6" height="6" transform="rotate(0,117,147)"/><rect x="120" y="144" width="6" height="6" transform="rotate(0,123,147)"/><rect x="126" y="144" width="6" height="6" transform="rotate(0,129,147)"/><rect x="132" y="144" width="6" height="6" transform="rotate(0,135,147)"/><path d="M 156 144v 6h 6a 6 6, 0, 0, 0, -6 -6" transform="rotate(180,159,147)"/><rect x="162" y="144" width="6" height="6" transform="rotate(0,165,147)"/><rect x="168" y="144" width="6" height="6" transform="rotate(0,171,147)"/><rect x="174" y="144" width="6" height="6" transform="rotate(0,177,147)"/><circle cx="195" cy="147" r="3" transform="rotate(0,195,147)"/><rect x="222" y="144" width="6" height="6" transform="rotate(0,225,147)"/><path d="M 228 144v 6h 6a 6 6, 0, 0, 0, -6 -6" transform="rotate(0,231,147)"/><rect x="36" y="150" width="6" height="6" transform="rotate(0,39,153)"/><path d="M 54 150v 6h 3a 3 3, 0, 0, 0, 0 -6" transform="rotate(180,57,153)"/><rect x="60" y="150" width="6" height="6" transform="rotate(0,63,153)"/><path d="M 66 150v 6h 3a 3 3, 0, 0, 0, 0 -6" transform="rotate(0,69,153)"/><path d="M 84 150v 6h 6a 6 6, 0, 0, 0, -6 -6" transform="rotate(180,87,153)"/><rect x="90" y="150" width="6" height="6" transform="rotate(0,93,153)"/><path d="M 96 150v 6h 6a 6 6, 0, 0, 0, -6 -6" transform="rotate(90,99,153)"/><path d="M 126 150v 6h 6a 6 6, 0, 0, 0, -6 -6" transform="rotate(180,129,153)"/><rect x="132" y="150" width="6" height="6" transform="rotate(0,135,153)"/><circle cx="153" cy="153" r="3" transform="rotate(0,153,153)"/><rect x="162" y="150" width="6" height="6" transform="rotate(0,165,153)"/><path d="M 174 150v 6h 3a 3 3, 0, 0, 0, 0 -6" transform="rotate(90,177,153)"/><path d="M 198 150v 6h 3a 3 3, 0, 0, 0, 0 -6" transform="rotate(-90,201,153)"/><circle cx="213" cy="153" r="3" transform="rotate(0,213,153)"/><rect x="222" y="150" width="6" height="6" transform="rotate(0,225,153)"/><path d="M 228 150v 6h 6a 6 6, 0, 0, 0, -6 -6" transform="rotate(90,231,153)"/><path d="M 24 156v 6h 3a 3 3, 0, 0, 0, 0 -6" transform="rotate(-90,27,159)"/><path d="M 36 156v 6h 6a 6 6, 0, 0, 0, -6 -6" transform="rotate(180,39,159)"/><rect x="42" y="156" width="6" height="6" transform="rotate(0,45,159)"/><path d="M 48 156v 6h 3a 3 3, 0, 0, 0, 0 -6" transform="rotate(0,51,159)"/><path d="M 108 156v 6h 6a 6 6, 0, 0, 0, -6 -6" transform="rotate(-90,111,159)"/><path d="M 114 156v 6h 6a 6 6, 0, 0, 0, -6 -6" transform="rotate(0,117,159)"/><path d="M 132 156v 6h 3a 3 3, 0, 0, 0, 0 -6" transform="rotate(90,135,159)"/><path d="M 162 156v 6h 3a 3 3, 0, 0, 0, 0 -6" transform="rotate(90,165,159)"/><circle cx="183" cy="159" r="3" transform="rotate(0,183,159)"/><path d="M 192 156v 6h 3a 3 3, 0, 0, 0, 0 -6" transform="rotate(180,195,159)"/><rect x="198" y="156" width="6" height="6" transform="rotate(0,201,159)"/><path d="M 222 156v 6h 3a 3 3, 0, 0, 0, 0 -6" transform="rotate(90,225,159)"/><path d="M 12 162v 6h 3a 3 3, 0, 0, 0, 0 -6" transform="rotate(-90,15,165)"/><path d="M 24 162v 6h 6a 6 6, 0, 0, 0, -6 -6" transform="rotate(180,27,165)"/><path d="M 30 162v 6h 3a 3 3, 0, 0, 0, 0 -6" transform="rotate(0,33,165)"/><path d="M 66 162v 6h 3a 3 3, 0, 0, 0, 0 -6" transform="rotate(-90,69,165)"/><path d="M 78 162v 6h 3a 3 3, 0, 0, 0, 0 -6" transform="rotate(180,81,165)"/><path d="M 84 162v 6h 6a 6 6, 0, 0, 0, -6 -6" transform="rotate(0,87,165)"/><path d="M 102 162v 6h 6a 6 6, 0, 0, 0, -6 -6" transform="rotate(-90,105,165)"/><rect x="108" y="162" width="6" height="6" transform="rotate(0,111,165)"/><rect x="114" y="162" width="6" height="6" transform="rotate(0,117,165)"/><rect x="120" y="162" width="6" height="6" transform="rotate(0,123,165)"/><path d="M 126 162v 6h 3a 3 3, 0, 0, 0, 0 -6" transform="rotate(0,129,165)"/><circle cx="153" cy="165" r="3" transform="rotate(0,153,165)"/><path d="M 198 162v 6h 3a 3 3, 0, 0, 0, 0 -6" transform="rotate(90,201,165)"/><rect x="12" y="168" width="6" height="6" transform="rotate(0,15,171)"/><path d="M 42 168v 6h 3a 3 3, 0, 0, 0, 0 -6" transform="rotate(180,45,171)"/><path d="M 48 168v 6h 3a 3 3, 0, 0, 0, 0 -6" transform="rotate(0,51,171)"/><path d="M 66 168v 6h 3a 3 3, 0, 0, 0, 0 -6" transform="rotate(90,69,171)"/><rect x="84" y="168" width="6" height="6" transform="rotate(0,87,171)"/><rect x="102" y="168" width="6" height="6" transform="rotate(0,105,171)"/><rect x="114" y="168" width="6" height="6" transform="rotate(0,117,171)"/><rect x="120" y="168" width="6" height="6" transform="rotate(0,123,171)"/><circle cx="141" cy="171" r="3" transform="rotate(0,141,171)"/><path d="M 174 168v 6h 3a 3 3, 0, 0, 0, 0 -6" transform="rotate(180,177,171)"/><path d="M 180 168v 6h 6a 6 6, 0, 0, 0, -6 -6" transform="rotate(0,183,171)"/><circle cx="195" cy="171" r="3" transform="rotate(0,195,171)"/><path d="M 210 168v 6h 3a 3 3, 0, 0, 0, 0 -6" transform="rotate(-90,213,171)"/><path d="M 228 168v 6h 3a 3 3, 0, 0, 0, 0 -6" transform="rotate(-90,231,171)"/><rect x="12" y="174" width="6" height="6" transform="rotate(0,15,177)"/><path d="M 24 174v 6h 3a 3 3, 0, 0, 0, 0 -6" transform="rotate(-90,27,177)"/><path d="M 84 174v 6h 3a 3 3, 0, 0, 0, 0 -6" transform="rotate(90,87,177)"/><rect x="102" y="174" width="6" height="6" transform="rotate(0,105,177)"/><rect x="108" y="174" width="6" height="6" transform="rotate(0,111,177)"/><rect x="114" y="174" width="6" height="6" transform="rotate(0,117,177)"/><rect x="120" y="174" width="6" height="6" transform="rotate(0,123,177)"/><path d="M 132 174v 6h 3a 3 3, 0, 0, 0, 0 -6" transform="rotate(-90,135,177)"/><path d="M 144 174v 6h 6a 6 6, 0, 0, 0, -6 -6" transform="rotate(-90,147,177)"/><rect x="150" y="174" width="6" height="6" transform="rotate(0,153,177)"/><path d="M 156 174v 6h 6a 6 6, 0, 0, 0, -6 -6" transform="rotate(0,159,177)"/><path d="M 168 174v 6h 3a 3 3, 0, 0, 0, 0 -6" transform="rotate(-90,171,177)"/><rect x="180" y="174" width="6" height="6" transform="rotate(0,183,177)"/><path d="M 186 174v 6h 6a 6 6, 0, 0, 0, -6 -6" transform="rotate(0,189,177)"/><rect x="210" y="174" width="6" height="6" transform="rotate(0,213,177)"/><rect x="216" y="174" width="6" height="6" transform="rotate(0,219,177)"/><rect x="222" y="174" width="6" height="6" transform="rotate(0,225,177)"/><rect x="228" y="174" width="6" height="6" transform="rotate(0,231,177)"/><path d="M 12 180v 6h 3a 3 3, 0, 0, 0, 0 -6" transform="rotate(90,15,183)"/><path d="M 24 180v 6h 6a 6 6, 0, 0, 0, -6 -6" transform="rotate(180,27,183)"/><rect x="30" y="180" width="6" height="6" transform="rotate(0,33,183)"/><rect x="36" y="180" width="6" height="6" transform="rotate(0,39,183)"/><rect x="42" y="180" width="6" height="6" transform="rotate(0,45,183)"/><rect x="48" y="180" width="6" height="6" transform="rotate(0,51,183)"/><path d="M 54 180v 6h 3a 3 3, 0, 0, 0, 0 -6" transform="rotate(0,57,183)"/><path d="M 66 180v 6h 3a 3 3, 0, 0, 0, 0 -6" transform="rotate(-90,69,183)"/><circle cx="81" cy="183" r="3" transform="rotate(0,81,183)"/><path d="M 90 180v 6h 3a 3 3, 0, 0, 0, 0 -6" transform="rotate(180,93,183)"/><rect x="96" y="180" width="6" height="6" transform="rotate(0,99,183)"/><rect x="102" y="180" width="6" height="6" transform="rotate(0,105,183)"/><rect x="120" y="180" width="6" height="6" transform="rotate(0,123,183)"/><rect x="126" y="180" width="6" height="6" transform="rotate(0,129,183)"/><rect x="132" y="180" width="6" height="6" transform="rotate(0,135,183)"/><path d="M 144 180v 6h 3a 3 3, 0, 0, 0, 0 -6" transform="rotate(90,147,183)"/><path d="M 156 180v 6h 6a 6 6, 0, 0, 0, -6 -6" transform="rotate(180,159,183)"/><rect x="162" y="180" width="6" height="6" transform="rotate(0,165,183)"/><rect x="168" y="180" width="6" height="6" transform="rotate(0,171,183)"/><rect x="174" y="180" width="6" height="6" transform="rotate(0,177,183)"/><rect x="180" y="180" width="6" height="6" transform="rotate(0,183,183)"/><rect x="186" y="180" width="6" height="6" transform="rotate(0,189,183)"/><rect x="192" y="180" width="6" height="6" transform="rotate(0,195,183)"/><rect x="198" y="180" width="6" height="6" transform="rotate(0,201,183)"/><rect x="204" y="180" width="6" height="6" transform="rotate(0,207,183)"/><rect x="210" y="180" width="6" height="6" transform="rotate(0,213,183)"/><rect x="216" y="180" width="6" height="6" transform="rotate(0,219,183)"/><rect x="222" y="180" width="6" height="6" transform="rotate(0,225,183)"/><path d="M 228 180v 6h 6a 6 6, 0, 0, 0, -6 -6" transform="rotate(90,231,183)"/><path d="M 60 186v 6h 6a 6 6, 0, 0, 0, -6 -6" transform="rotate(-90,63,189)"/><rect x="66" y="186" width="6" height="6" transform="rotate(0,69,189)"/><path d="M 72 186v 6h 6a 6 6, 0, 0, 0, -6 -6" transform="rotate(0,75,189)"/><rect x="102" y="186" width="6" height="6" transform="rotate(0,105,189)"/><path d="M 114 186v 6h 3a 3 3, 0, 0, 0, 0 -6" transform="rotate(180,117,189)"/><rect x="120" y="186" width="6" height="6" transform="rotate(0,123,189)"/><rect x="126" y="186" width="6" height="6" transform="rotate(0,129,189)"/><path d="M 132 186v 6h 6a 6 6, 0, 0, 0, -6 -6" transform="rotate(90,135,189)"/><path d="M 150 186v 6h 3a 3 3, 0, 0, 0, 0 -6" transform="rotate(-90,153,189)"/><path d="M 162 186v 6h 3a 3 3, 0, 0, 0, 0 -6" transform="rotate(90,165,189)"/><rect x="180" y="186" width="6" height="6" transform="rotate(0,183,189)"/><rect x="204" y="186" width="6" height="6" transform="rotate(0,207,189)"/><rect x="210" y="186" width="6" height="6" transform="rotate(0,213,189)"/><path d="M 60 192v 6h 6a 6 6, 0, 0, 0, -6 -6" transform="rotate(180,63,195)"/><rect x="66" y="192" width="6" height="6" transform="rotate(0,69,195)"/><rect x="72" y="192" width="6" height="6" transform="rotate(0,75,195)"/><circle cx="87" cy="195" r="3" transform="rotate(0,87,195)"/><path d="M 102 192v 6h 3a 3 3, 0, 0, 0, 0 -6" transform="rotate(90,105,195)"/><path d="M 126 192v 6h 3a 3 3, 0, 0, 0, 0 -6" transform="rotate(90,129,195)"/><path d="M 138 192v 6h 3a 3 3, 0, 0, 0, 0 -6" transform="rotate(180,141,195)"/><rect x="144" y="192" width="6" height="6" transform="rotate(0,147,195)"/><rect x="150" y="192" width="6" height="6" transform="rotate(0,153,195)"/><path d="M 156 192v 6h 3a 3 3, 0, 0, 0, 0 -6" transform="rotate(0,159,195)"/><rect x="180" y="192" width="6" height="6" transform="rotate(0,183,195)"/><circle cx="195" cy="195" r="3" transform="rotate(0,195,195)"/><rect x="204" y="192" width="6" height="6" transform="rotate(0,207,195)"/><rect x="210" y="192" width="6" height="6" transform="rotate(0,213,195)"/><path d="M 216 192v 6h 3a 3 3, 0, 0, 0, 0 -6" transform="rotate(0,219,195)"/><circle cx="231" cy="195" r="3" transform="rotate(0,231,195)"/><rect x="72" y="198" width="6" height="6" transform="rotate(0,75,201)"/><path d="M 108 198v 6h 3a 3 3, 0, 0, 0, 0 -6" transform="rotate(180,111,201)"/><path d="M 114 198v 6h 3a 3 3, 0, 0, 0, 0 -6" transform="rotate(0,117,201)"/><path d="M 144 198v 6h 3a 3 3, 0, 0, 0, 0 -6" transform="rotate(90,147,201)"/><path d="M 168 198v 6h 6a 6 6, 0, 0, 0, -6 -6" transform="rotate(-90,171,201)"/><rect x="174" y="198" width="6" height="6" transform="rotate(0,177,201)"/><rect x="180" y="198" width="6" height="6" transform="rotate(0,183,201)"/><rect x="204" y="198" width="6" height="6" transform="rotate(0,207,201)"/><path d="M 210 198v 6h 6a 6 6, 0, 0, 0, -6 -6" transform="rotate(90,213,201)"/><path d="M 222 198v 6h 3a 3 3, 0, 0, 0, 0 -6" transform="rotate(-90,225,201)"/><path d="M 66 204v 6h 3a 3 3, 0, 0, 0, 0 -6" transform="rotate(180,69,207)"/><rect x="72" y="204" width="6" height="6" transform="rotate(0,75,207)"/><path d="M 78 204v 6h 6a 6 6, 0, 0, 0, -6 -6" transform="rotate(0,81,207)"/><path d="M 90 204v 6h 3a 3 3, 0, 0, 0, 0 -6" transform="rotate(180,93,207)"/><path d="M 96 204v 6h 6a 6 6, 0, 0, 0, -6 -6" transform="rotate(0,99,207)"/><circle cx="141" cy="207" r="3" transform="rotate(0,141,207)"/><circle cx="153" cy="207" r="3" transform="rotate(0,153,207)"/><path d="M 162 204v 6h 6a 6 6, 0, 0, 0, -6 -6" transform="rotate(-90,165,207)"/><rect x="168" y="204" width="6" height="6" transform="rotate(0,171,207)"/><rect x="174" y="204" width="6" height="6" transform="rotate(0,177,207)"/><rect x="180" y="204" width="6" height="6" transform="rotate(0,183,207)"/><rect x="186" y="204" width="6" height="6" transform="rotate(0,189,207)"/><rect x="192" y="204" width="6" height="6" transform="rotate(0,195,207)"/><rect x="198" y="204" width="6" height="6" transform="rotate(0,201,207)"/><path d="M 204 204v 6h 6a 6 6, 0, 0, 0, -6 -6" transform="rotate(90,207,207)"/><path d="M 216 204v 6h 6a 6 6, 0, 0, 0, -6 -6" transform="rotate(-90,219,207)"/><rect x="222" y="204" width="6" height="6" transform="rotate(0,225,207)"/><path d="M 228 204v 6h 3a 3 3, 0, 0, 0, 0 -6" transform="rotate(0,231,207)"/><path d="M 72 210v 6h 6a 6 6, 0, 0, 0, -6 -6" transform="rotate(180,75,213)"/><rect x="78" y="210" width="6" height="6" transform="rotate(0,81,213)"/><path d="M 84 210v 6h 3a 3 3, 0, 0, 0, 0 -6" transform="rotate(0,87,213)"/><path d="M 96 210v 6h 6a 6 6, 0, 0, 0, -6 -6" transform="rotate(180,99,213)"/><rect x="102" y="210" width="6" height="6" transform="rotate(0,105,213)"/><rect x="108" y="210" width="6" height="6" transform="rotate(0,111,213)"/><path d="M 114 210v 6h 3a 3 3, 0, 0, 0, 0 -6" transform="rotate(0,117,213)"/><path d="M 156 210v 6h 3a 3 3, 0, 0, 0, 0 -6" transform="rotate(180,159,213)"/><rect x="162" y="210" width="6" height="6" transform="rotate(0,165,213)"/><path d="M 174 210v 6h 3a 3 3, 0, 0, 0, 0 -6" transform="rotate(90,177,213)"/><path d="M 192 210v 6h 6a 6 6, 0, 0, 0, -6 -6" transform="rotate(180,195,213)"/><rect x="198" y="210" width="6" height="6" transform="rotate(0,201,213)"/><path d="M 210 210v 6h 3a 3 3, 0, 0, 0, 0 -6" transform="rotate(180,213,213)"/><rect x="216" y="210" width="6" height="6" transform="rotate(0,219,213)"/><path d="M 222 210v 6h 6a 6 6, 0, 0, 0, -6 -6" transform="rotate(90,225,213)"/><circle cx="93" cy="219" r="3" transform="rotate(0,93,219)"/><rect x="108" y="216" width="6" height="6" transform="rotate(0,111,219)"/><path d="M 120 216v 6h 3a 3 3, 0, 0, 0, 0 -6" transform="rotate(180,123,219)"/><path d="M 126 216v 6h 6a 6 6, 0, 0, 0, -6 -6" transform="rotate(0,129,219)"/><circle cx="141" cy="219" r="3" transform="rotate(0,141,219)"/><path d="M 162 216v 6h 6a 6 6, 0, 0, 0, -6 -6" transform="rotate(180,165,219)"/><path d="M 168 216v 6h 3a 3 3, 0, 0, 0, 0 -6" transform="rotate(0,171,219)"/><path d="M 180 216v 6h 6a 6 6, 0, 0, 0, -6 -6" transform="rotate(-90,183,219)"/><path d="M 186 216v 6h 6a 6 6, 0, 0, 0, -6 -6" transform="rotate(0,189,219)"/><path d="M 198 216v 6h 3a 3 3, 0, 0, 0, 0 -6" transform="rotate(90,201,219)"/><path d="M 216 216v 6h 3a 3 3, 0, 0, 0, 0 -6" transform="rotate(90,219,219)"/><path d="M 228 216v 6h 3a 3 3, 0, 0, 0, 0 -6" transform="rotate(-90,231,219)"/><path d="M 60 222v 6h 3a 3 3, 0, 0, 0, 0 -6" transform="rotate(180,63,225)"/><rect x="66" y="222" width="6" height="6" transform="rotate(0,69,225)"/><path d="M 72 222v 6h 6a 6 6, 0, 0, 0, -6 -6" transform="rotate(0,75,225)"/><circle cx="87" cy="225" r="3" transform="rotate(0,87,225)"/><path d="M 96 222v 6h 3a 3 3, 0, 0, 0, 0 -6" transform="rotate(-90,99,225)"/><path d="M 108 222v 6h 6a 6 6, 0, 0, 0, -6 -6" transform="rotate(180,111,225)"/><path d="M 114 222v 6h 6a 6 6, 0, 0, 0, -6 -6" transform="rotate(0,117,225)"/><path d="M 126 222v 6h 6a 6 6, 0, 0, 0, -6 -6" transform="rotate(180,129,225)"/><path d="M 132 222v 6h 3a 3 3, 0, 0, 0, 0 -6" transform="rotate(0,135,225)"/><circle cx="147" cy="225" r="3" transform="rotate(0,147,225)"/><path d="M 156 222v 6h 3a 3 3, 0, 0, 0, 0 -6" transform="rotate(-90,159,225)"/><rect x="180" y="222" width="6" height="6" transform="rotate(0,183,225)"/><rect x="186" y="222" width="6" height="6" transform="rotate(0,189,225)"/><path d="M 210 222v 6h 3a 3 3, 0, 0, 0, 0 -6" transform="rotate(-90,213,225)"/><rect x="228" y="222" width="6" height="6" transform="rotate(0,231,225)"/><path d="M 66 228v 6h 6a 6 6, 0, 0, 0, -6 -6" transform="rotate(180,69,231)"/><path d="M 72 228v 6h 6a 6 6, 0, 0, 0, -6 -6" transform="rotate(90,75,231)"/><path d="M 96 228v 6h 6a 6 6, 0, 0, 0, -6 -6" transform="rotate(180,99,231)"/><path d="M 102 228v 6h 3a 3 3, 0, 0, 0, 0 -6" transform="rotate(0,105,231)"/><path d="M 114 228v 6h 6a 6 6, 0, 0, 0, -6 -6" transform="rotate(180,117,231)"/><path d="M 120 228v 6h 3a 3 3, 0, 0, 0, 0 -6" transform="rotate(0,123,231)"/><path d="M 150 228v 6h 3a 3 3, 0, 0, 0, 0 -6" transform="rotate(180,153,231)"/><path d="M 156 228v 6h 6a 6 6, 0, 0, 0, -6 -6" transform="rotate(90,159,231)"/><circle cx="171" cy="231" r="3" transform="rotate(0,171,231)"/><path d="M 180 228v 6h 6a 6 6, 0, 0, 0, -6 -6" transform="rotate(180,183,231)"/><path d="M 186 228v 6h 6a 6 6, 0, 0, 0, -6 -6" transform="rotate(90,189,231)"/><path d="M 198 228v 6h 3a 3 3, 0, 0, 0, 0 -6" transform="rotate(180,201,231)"/><rect x="204" y="228" width="6" height="6" transform="rotate(0,207,231)"/><path d="M 210 228v 6h 6a 6 6, 0, 0, 0, -6 -6" transform="rotate(90,213,231)"/><path d="M 228 228v 6h 3a 3 3, 0, 0, 0, 0 -6" transform="rotate(90,231,231)"/></g></svg>